<svg xmlns="http://www.w3.org/2000/svg" viewBox="0 0 200 50">
    <defs>
        <style>.cls-1{fill:#fff;}.cls-2{fill:#adc0bd;fill-rule:evenodd;}</style>
    </defs>
    <g id="ilustraciones">
        <rect class="cls-1" y="5" width="200" height="40"/>
        <polygon class="cls-2"
                 points="20.05 12.03 1 12.03 1 17.75 7.45 17.75 7.45 36.65 13.9 36.65 13.9 17.75 20.05 17.75 20.05 12.03 20.05 12.03"/>
        <path class="cls-2"
              d="M38.08,17.75h-6V27.86c0,3.37-1.9,4.25-3.22,4.25-1.91,0-2.94-.88-2.94-3.37v-11H20.05V29c0,5,1.47,8.06,6.74,8.06A6.39,6.39,0,0,0,32.22,34h.14v2.64h5.72V17.75Z"/>
        <path class="cls-2"
              d="M49.51,21.85C52.15,21.85,53,24.63,53,27s-.88,5.42-3.52,5.42S46,30.2,46,27c0-4,1.91-5.13,3.52-5.13ZM40.28,42.07h5.86V34.6h0a6.34,6.34,0,0,0,5.28,2.49c5.13,0,7.62-4.54,7.62-9.53,0-5.27-2.49-10.4-8.06-10.4a5.57,5.57,0,0,0-5,2.78h-.14V17.75H40.28V42.07Z"/>
        <path class="cls-2"
              d="M69.59,21.85c2.64,0,3.52,2.78,3.52,5.13s-.88,5.42-3.52,5.42c-2.79,0-3.66-2.2-3.66-5.42,0-4,2-5.13,3.66-5.13ZM60.21,42.07h6V34.6h0a6.06,6.06,0,0,0,5.13,2.49c5.13,0,7.62-4.54,7.62-9.53,0-5.27-2.35-10.4-8.06-10.4a5.91,5.91,0,0,0-5,2.78h0V17.75H60.21V42.07Z"/>
        <path class="cls-2"
              d="M86,25.22c.3-2.35,1.76-3.81,3.81-3.81a3.63,3.63,0,0,1,3.52,3.81Zm13.34,3.52c.29-6.45-3.08-11.58-9.53-11.58a9.73,9.73,0,0,0-9.67,10c0,6.31,4,10,9.82,10,4.1,0,7.91-1.9,9.09-6.15H93.48A3.74,3.74,0,0,1,90.11,33c-2.49,0-4-1.76-4.11-4.25Z"/>
        <path class="cls-2"
              d="M100.66,36.65h5.86V27.56a4.15,4.15,0,0,1,4.4-4.39h1.76V17.6a1.82,1.82,0,0,0-.88-.15,5.35,5.35,0,0,0-5.42,3.67h0V17.75h-5.72v18.9Z"/>
        <polygon class="cls-2"
                 points="142.57 17.75 136.42 17.75 133.49 29.91 133.49 29.91 130.85 17.75 125.14 17.75 122.64 29.91 122.5 29.91 119.56 17.75 113.56 17.75 119.13 36.65 125.14 36.65 127.92 24.05 128.07 24.05 130.85 36.65 136.86 36.65 142.57 17.75 142.57 17.75"/>
        <path class="cls-2"
              d="M147.41,31.23c0-1.61,1.17-2.2,2.49-2.49a12.18,12.18,0,0,0,3.67-1c.14,4-.88,5.57-3.67,5.57-1.32,0-2.49-.59-2.49-2.05Zm.44-7.62a2.65,2.65,0,0,1,2.93-2.35c1.17,0,2.79.44,2.79,1.91,0,1.17-.44,1.46-1.47,1.76-4.1.88-10.55.29-10.55,6.45,0,3.95,2.64,5.71,6.15,5.71a7.86,7.86,0,0,0,6-2.34v1.9h5.57V23.46c0-5.27-4.1-6.3-8.5-6.3a12.14,12.14,0,0,0-5.71,1.32,6,6,0,0,0-2.79,5.13Z"/>
        <path class="cls-2"
              d="M179.51,25.22c.44-2.35,1.76-3.81,4-3.81A3.83,3.83,0,0,1,187,25.22Zm13.33,3.52c.3-6.45-2.93-11.58-9.38-11.58a9.75,9.75,0,0,0-9.81,10c0,6.31,3.95,10,10,10,4,0,7.92-1.9,8.94-6.15H187A3.57,3.57,0,0,1,183.61,33c-2.49,0-4-1.76-4.1-4.25Z"/>
        <path class="cls-2"
              d="M161.48,36.65h5.86V27.71a4.27,4.27,0,0,1,4.4-4.54h1.91V17.6a2.83,2.83,0,0,0-1-.15,5.36,5.36,0,0,0-5.42,3.67h0V17.75h-5.72v18.9Z"/>
        <path class="cls-2"
              d="M192.26,15.4H193V13.2h.88l1.32,2.2h.88l-1.47-2.34a1.23,1.23,0,0,0,1.32-1.32c0-.88-.58-1.47-1.76-1.47h-1.9V15.4ZM193,11h1c.58,0,1,0,1,.74s-.58.73-1.17.73H193V11Z"/>
        <path class="cls-2"
              d="M189.18,12.76a4.91,4.91,0,0,1,9.82,0,4.91,4.91,0,1,1-9.82,0Zm4.84,4.4a4.38,4.38,0,0,0,4.25-4.4,4.25,4.25,0,1,0-8.5,0,4.38,4.38,0,0,0,4.25,4.4Z"/>
    </g>
</svg>