<svg xmlns="http://www.w3.org/2000/svg" viewBox="0 0 200 50">
    <defs>
        <style>
            .cls-1{fill:#fff;}.cls-2{fill:#60663e;}.cls-3{fill:#eaab32;}.cls-4{fill:#6c8a32;}.cls-5{fill:#8dba30;}.cls-6{fill:#d96027;}
        </style>
    </defs>
    <g id="ilustraciones">
        <rect class="cls-1" width="200" height="50"/>
        <path class="cls-2"
              d="M185.57,18.94h0V17.41c4,0,7.21.78,9.56,2.39A8.88,8.88,0,0,1,199,27.61a8.87,8.87,0,0,1-3.7,7.72q-3.45,2.52-9.73,2.52V36.3h.07c2.87,0,5-.83,6.53-2.47a7.48,7.48,0,0,0,1.52-2.65,11.9,11.9,0,0,0,.48-3.51c0-5.75-2.87-8.65-8.6-8.73m0,0c-3,0-5.21.83-6.61,2.48a8.83,8.83,0,0,0-1.94,6c0,5.86,2.82,8.84,8.55,8.84v1.55h-.06c-4.38,0-7.69-.91-9.94-2.7a9.33,9.33,0,0,1-3.45-7.69A9.14,9.14,0,0,1,173.78,22c2.13-3,6-4.55,11.79-4.58ZM160.4,37.56V36c2.76-.21,4.14-1.5,4.14-3.79a3.65,3.65,0,0,0-1.8-3.33,6.4,6.4,0,0,0-1.82-.68,2.37,2.37,0,0,0-.52-.08V26.46a6.41,6.41,0,0,0,1.83-.53,3.4,3.4,0,0,0,1.89-3.31c0-2-1.25-3.11-3.72-3.39V17.69h.34a12.14,12.14,0,0,1,5.49,1.08,4.06,4.06,0,0,1,2.39,3.82,3.94,3.94,0,0,1-2.9,3.83,15.54,15.54,0,0,1-2.6.76,9.51,9.51,0,0,1,3,.75,4.31,4.31,0,0,1,3,4.18,4.74,4.74,0,0,1-3,4.41,10.44,10.44,0,0,1-4.8,1Zm0-19.87v1.54a11.67,11.67,0,0,0-1.21-.06h-2.9V26.6h1.94a13.86,13.86,0,0,0,2.17-.14v1.67a14.26,14.26,0,0,0-2.11-.13h-2v8h4.11v1.55h-8.83a3,3,0,0,0,.17-1V18.63a2.68,2.68,0,0,0-.17-.94Z"/>
        <path class="cls-2"
              d="M102.44,27.16a5.81,5.81,0,0,0,1.55-.54,3.58,3.58,0,0,0,2.17-3.34,3.66,3.66,0,0,0-1.82-3.21,5.38,5.38,0,0,0-1.9-.71V17.78a13.12,13.12,0,0,1,4.77.86,6.46,6.46,0,0,1,2.61,1.82,4.07,4.07,0,0,1,1,2.69c0,2.22-1.41,3.72-4.31,4.54a24.79,24.79,0,0,1-3,.58l9,8.58a4.15,4.15,0,0,0,1.1.8h-6a2.92,2.92,0,0,0-.59-.87l-4.52-4.57Zm-3.76.14h2.13a8,8,0,0,0,1.63-.14v5.05l-3.73-3.77v8.23a3,3,0,0,0,.17,1H94a2.73,2.73,0,0,0,.17-1v-18a2.89,2.89,0,0,0-.17-.93h8.49v1.58a12.85,12.85,0,0,0-1.86-.15h-1.9ZM87.89,18.57V21a16.75,16.75,0,0,0-7.45-1.85,9.85,9.85,0,0,0-6.42,2,6.47,6.47,0,0,0-2.11,2.73,10.51,10.51,0,0,0-.68,4c0,3,.89,5.18,2.72,6.65a9.62,9.62,0,0,0,6.11,1.82,10.7,10.7,0,0,0,4.21-.81V27.73a2.83,2.83,0,0,0-.17-1h4.76a3.19,3.19,0,0,0-.18,1v7.65A3.77,3.77,0,0,0,89,36.57c-2.45.57-4.24,1-5.35,1.11a26.61,26.61,0,0,1-4.07.25,18.27,18.27,0,0,1-6.94-1.11,9.8,9.8,0,0,1-4.86-3.88,9.63,9.63,0,0,1-1.41-5.18,8.9,8.9,0,0,1,4.45-8c2.38-1.55,5.52-2.29,9.49-2.29a30,30,0,0,1,7.62,1.07"/>
        <path class="cls-2"
              d="M57.33,21.54A4.29,4.29,0,0,0,53.19,19c-2.84,0-4.11,1.53-4.11,3.19C49.08,26.09,60,25.38,60,32c0,3.68-3.79,6-9.37,6a13.29,13.29,0,0,1-5.78-1.24,22.1,22.1,0,0,0,1-3.67h.69c.53,2,2.47,3.18,5,3.18,2.23,0,4.38-1.17,4.38-3.16,0-4.61-10.71-2.93-10.71-9.88,0-3.32,2.67-5.91,8.13-5.91A11,11,0,0,1,59,18.67c-.43.93-.79,1.88-1.15,2.87Z"/>
        <path class="cls-2"
              d="M28.77,19.09h0V17.55c4,0,7.21.79,9.56,2.4a8.91,8.91,0,0,1,3.85,7.8,8.91,8.91,0,0,1-3.68,7.72Q35,38,28.77,38V36.45h.06c2.87,0,5-.83,6.53-2.48a7.17,7.17,0,0,0,1.52-2.65,11.51,11.51,0,0,0,.48-3.5c0-5.76-2.86-8.65-8.59-8.73m0,0c-3,0-5.22.83-6.63,2.47a8.9,8.9,0,0,0-1.93,6.05c0,5.86,2.83,8.84,8.56,8.84V38H28.7c-4.38,0-7.69-.89-9.94-2.7a9.31,9.31,0,0,1-3.45-7.68A9.26,9.26,0,0,1,17,22.13c2.14-3,6-4.54,11.8-4.58Z"/>
        <path class="cls-2"
              d="M5.85,17.78l-.13,1V35.7l7.94-.07c1.25.2,1.32-.53,1.6-.53L15,37.61l-14,0a2.64,2.64,0,0,0,.17-1V18.71A2.27,2.27,0,0,0,1,17.78Z"/>
        <path class="cls-3" d="M114,21.74a3,3,0,0,1-1-4.06,3,3,0,0,1,3.87-1.63,3,3,0,0,1,1,4.07A3,3,0,0,1,114,21.74"/>
        <path class="cls-3" d="M137.59,12.32a3.24,3.24,0,0,1-6.19-1.47,2.92,2.92,0,0,1,3.69-1.8,3,3,0,0,1,2.5,3.27"/>
        <path class="cls-3" d="M139.44,41.8a3.22,3.22,0,0,1-6.05,2,3.22,3.22,0,0,1,6.05-2"/>
        <path class="cls-3" d="M146.67,23.36a3,3,0,0,1,3.45,2.39,2.77,2.77,0,1,1-5.31,1.37,3,3,0,0,1,1.86-3.76"/>
        <path class="cls-3"
              d="M144,30.89a2.38,2.38,0,0,0-1.23-.17v0c1.07-3.51.84-6.61-.69-9.25-.1-.19-.21-.36-.31-.54a2.53,2.53,0,0,0,1.53-1,3.14,3.14,0,0,0-1-4.26,3.06,3.06,0,0,0-4.3.4,2.52,2.52,0,0,0-.44,1.09,17.92,17.92,0,0,0-3.34-1.39,13.34,13.34,0,0,0-5.93-.58,2.74,2.74,0,0,0-.15-.9c-.57-1.52-2.21-2.1-4-1.4s-3,2.43-2.41,4a2.42,2.42,0,0,0,.62.94,11,11,0,0,0-4.06,5.71,16.69,16.69,0,0,0-.63,3,2.37,2.37,0,0,0-1.7-.05,3.13,3.13,0,0,0-1.61,4,3,3,0,0,0,3.61,2.2,2.16,2.16,0,0,0,.63-.35c.09.16.16.31.25.45a11.77,11.77,0,0,0,6,5.05,2.59,2.59,0,0,0-1,1.66,3,3,0,0,0,2.71,3.26,3.09,3.09,0,0,0,3.66-2.26,2.58,2.58,0,0,0-.15-1.31,12.13,12.13,0,0,0,6.74-1.08,10.61,10.61,0,0,0,3.28-2.44,2.49,2.49,0,0,0,1.26,1.33A3.06,3.06,0,0,0,145.14,35,3.07,3.07,0,0,0,144,30.89m-5.59-1.19a7.84,7.84,0,0,1-3.9,4.88,8.65,8.65,0,0,1-6.48.32,8.3,8.3,0,0,1-5.22-3.69,7.37,7.37,0,0,1-.39-6.11,7.82,7.82,0,0,1,3.9-4.89,8.79,8.79,0,0,1,6.5-.32,8.32,8.32,0,0,1,5.2,3.7,7.36,7.36,0,0,1,.39,6.11"/>
        <path class="cls-4"
              d="M144,30.89a2.38,2.38,0,0,0-1.23-.17v0a14.77,14.77,0,0,0,.6-2.94h0l0-.4h0a3.1,3.1,0,0,0,0-.43l-.65-.11a.31.31,0,0,0-.15-.1c-1.26-.37-2.76.11-3.74.2a2.44,2.44,0,0,1,0,.27v.08c0,.06,0,.13,0,.2v.05a.31.31,0,0,0,0,.09v0a.41.41,0,0,0,0,.11s0,0,0,0a1.48,1.48,0,0,1,0,.19v0s0,.05,0,.07v0a2.93,2.93,0,0,1-.05.29v0a0,0,0,0,1,0,0c0,.13-.05.25-.08.37v0a2.46,2.46,0,0,1-.09.34c0,.17-.09.35-.15.53a7.81,7.81,0,0,1-3.9,4.88l-.05,0h0l-.16.08h0a8.05,8.05,0,0,1-4.64.58,2.25,2.25,0,0,0,.06,1.28,1.86,1.86,0,0,0,2.26,1.39,1.56,1.56,0,0,0,.4-.22c0,.09.09.19.15.28a5.79,5.79,0,0,0,.8,1.11c.26,0,.53-.08.8-.13h0a2.1,2.1,0,0,1,.24-.06l.18,0,.17,0h0a11.61,11.61,0,0,0,2.09-.77,10.5,10.5,0,0,0,3.28-2.44,2.49,2.49,0,0,0,1.26,1.33A3.06,3.06,0,0,0,145.14,35,3.07,3.07,0,0,0,144,30.89"/>
        <path class="cls-3" d="M120,40.65a3.19,3.19,0,1,1-.55-4.13,3,3,0,0,1,.55,4.13"/>
        <path class="cls-5" d="M130.27,25.47a3.37,3.37,0,0,0,1.07,1.71h0a3.38,3.38,0,0,1-1.08-1.71"/>
        <path class="cls-5" d="M130.27,25.47a2.68,2.68,0,0,1,0-1.35h0a2.8,2.8,0,0,0,0,1.35"/>
        <path class="cls-6"
              d="M127.05,27.77a3.29,3.29,0,0,0,3,2.88,3.68,3.68,0,0,1,.38-2.29,4,4,0,0,1,.65-.91,3.16,3.16,0,0,0-.45-.28,3.27,3.27,0,0,0-3.56.23,2.23,2.23,0,0,0,0,.37"/>
        <path class="cls-4"
              d="M132.24,27.75a3.62,3.62,0,0,1-.9-.57l-.3.27a4.39,4.39,0,0,0-.65.91,3.68,3.68,0,0,0-.38,2.29,4,4,0,0,0,.92,0,4,4,0,0,0,1.46-.46,3.57,3.57,0,0,0,1.74-2.14,3.65,3.65,0,0,1-1.89-.31"/>
        <path class="cls-3"
              d="M130.59,27.17a3.16,3.16,0,0,1,.45.28l.3-.27a3.37,3.37,0,0,1-1.07-1.71,2.84,2.84,0,0,1,0-1.36A3.6,3.6,0,0,0,127,27.4a3.27,3.27,0,0,1,3.56-.23"/>
        <path class="cls-5"
              d="M134.23,27a2.53,2.53,0,0,0-.07-.38,3.43,3.43,0,0,0-3.83-2.51h-.05a2.68,2.68,0,0,0,0,1.35,3.38,3.38,0,0,0,1.08,1.71h0a3.81,3.81,0,0,0,.9.57,3.55,3.55,0,0,0,1.89.31l0-.13a3.22,3.22,0,0,0,.07-.93"/>
        <path class="cls-6"
              d="M134.26,34.67l-.11,0a8.77,8.77,0,0,1-6.16.18,8.3,8.3,0,0,1-5.22-3.69,9,9,0,0,1-.44-.95c-1.42.28-2.63,2.17-3.14,3.08a12.16,12.16,0,0,0,5.67,4.44,2.64,2.64,0,0,0-1,1.66,3,3,0,0,0,2.71,3.26,3.08,3.08,0,0,0,3.66-2.26,2.58,2.58,0,0,0-.15-1.31,13.27,13.27,0,0,0,4-.14l.09,0a9.7,9.7,0,0,0,.18-4.3"/>
        <path class="cls-3"
              d="M141.73,20.9h0a2.53,2.53,0,0,0,1.53-1,2.08,2.08,0,0,0,.22-.38,2,2,0,0,1-.22.37,2.64,2.64,0,0,1-1.53,1"/>
        <path class="cls-3" d="M138.8,26.17v0s0,.1,0,.15,0,0,0,0a.31.31,0,0,0,0-.09"/>
        <path class="cls-3" d="M138.76,25.84a.2.2,0,0,0,0-.05c0,.05,0,.09,0,.15s0,0,0-.05a.09.09,0,0,1,0-.05"/>
        <path class="cls-5" d="M141.17,15.09a3.17,3.17,0,0,0-1-.14c.34.14.66.29,1,.45a1.29,1.29,0,0,1,.08-.31"/>
        <path class="cls-3" d="M138.7,25.5a.36.36,0,0,0,0-.1,1.06,1.06,0,0,1,0,.19.13.13,0,0,1,0-.06,0,0,0,0,0,0,0"/>
        <path class="cls-5" d="M138.78,27.87s0-.07,0-.11a1.48,1.48,0,0,1,0,.19.15.15,0,0,0,0-.08"/>
        <path class="cls-5" d="M138.61,28.83s0,.06,0,.1,0-.07,0-.1"/>
        <path class="cls-5" d="M138.69,28.46v0a1.7,1.7,0,0,0,0,.22,1.06,1.06,0,0,1,0-.19"/>
        <path class="cls-5" d="M138.65,28.65c0,.05,0,.12,0,.18s0-.13,0-.18"/>
        <path class="cls-5" d="M138.52,29.21a2.29,2.29,0,0,1,.07-.28,2.29,2.29,0,0,0-.07.28"/>
        <path class="cls-5" d="M142.87,23.27h0a.61.61,0,0,0-.05-.12l.09.25a.56.56,0,0,1,0-.12"/>
        <path class="cls-5" d="M134,15.67h0l.21.06a.76.76,0,0,1-.2-.06"/>
        <path class="cls-5" d="M143.25,24.85v0a.18.18,0,0,0,0-.06.68.68,0,0,1,0,.14s0-.05,0-.06"/>
        <path class="cls-5" d="M143.38,26.07v0h0v0"/>
        <path class="cls-5" d="M143.67,18.94a2.31,2.31,0,0,1-.19.56,2.31,2.31,0,0,0,.19-.56"/>
        <path class="cls-5" d="M141.17,15.09h0"/>
        <path class="cls-5" d="M138.7,28.4v0a.09.09,0,0,1,0,.05s0,0,0,0"/>
        <path class="cls-5" d="M138.76,28V28c0,.05,0,.09,0,.14s0-.05,0-.07"/>
        <path class="cls-5" d="M138.8,27.63s0,0,0,0,0,.12,0,.17a.57.57,0,0,0,0-.13"/>
        <path class="cls-5" d="M138.84,27v.1h0V27"/>
        <path class="cls-5" d="M138.84,26.64v0"/>
        <path class="cls-5" d="M138.82,27.5v-.07c0-.06,0-.12,0-.17s0-.14,0-.19h0c0,.13,0,.29,0,.43"/>
        <path class="cls-5" d="M131.55,15.8l0,0,0,0h0"/>
        <path class="cls-5"
              d="M143.73,18.25l0-.25a.07.07,0,0,0,0-.05,2.34,2.34,0,0,0,0-.26s0,0,0-.05,0-.14-.07-.22a.13.13,0,0,0,0-.05q0-.11-.09-.24s0,0,0-.06l-.12-.23h0c0-.08-.1-.16-.15-.24l0,0c0-.08-.11-.15-.17-.23s0,0,0,0l-.18-.19s0,0,0-.05-.14-.12-.2-.19l0,0-.24-.19-.26-.17-.2-.11-.07,0-.27-.13h0l-.26-.09h0a1.29,1.29,0,0,0-.08.31c-.31-.16-.63-.31-1-.45H140l-.19,0h0l-.27,0h-.05l-.24.08a.09.09,0,0,0-.06,0,1.31,1.31,0,0,0-.21.08l-.08,0-.19.1-.07.05a1,1,0,0,0-.17.12l-.07.06-.16.15-.06.06A1.55,1.55,0,0,0,138,16a2.52,2.52,0,0,0-.44,1.09,17.26,17.26,0,0,0-3.34-1.38l-.21-.07-1.59-.38-.1,0-.14,0-.58.56h0l0,0a11.39,11.39,0,0,0-2.3,3.6h.23a11.21,11.21,0,0,1,3.33.46,8.35,8.35,0,0,1,5.2,3.7,6.39,6.39,0,0,1,.58,1.35,0,0,0,0,0,0,0c0,.12.06.22.08.32a.5.5,0,0,1,0,.12.42.42,0,0,1,0,.1v0a.13.13,0,0,0,0,.06l0,.2a.2.2,0,0,1,0,.05.09.09,0,0,0,0,.05s0,0,0,.05a1.65,1.65,0,0,1,0,.21v0a.31.31,0,0,1,0,.09s0,0,0,0,0,.14,0,.22h0v.1h0V27h0v.11a9.31,9.31,0,0,1,4.54-.16c0-.27,0-.55,0-.82V26c0-.19,0-.37,0-.56v-.07l-.07-.5a.68.68,0,0,0,0-.14c0-.1,0-.2-.05-.3a1.29,1.29,0,0,1,0-.19c0-.13-.06-.28-.1-.41s-.05-.18-.08-.27,0-.15-.06-.21l-.09-.25-.09-.27a2.77,2.77,0,0,1-.1-.26,2.14,2.14,0,0,1-.1-.22l-.14-.3a1.5,1.5,0,0,0-.09-.18c-.08-.16-.17-.32-.26-.47s-.21-.36-.31-.54h0a2.52,2.52,0,0,0,1.53-1,2,2,0,0,0,.22-.37,0,0,0,0,1,0,0,2.81,2.81,0,0,0,.18-.56.07.07,0,0,0,0-.05.89.89,0,0,0,0-.15s0-.08,0-.12v-.11a1.93,1.93,0,0,0,0-.24v0"/>
        <path class="cls-2"
              d="M76.9,10.91a12.88,12.88,0,0,1-2.91.43c-2.3,0-4.35-1-4.35-3.3s2-3.63,4.5-3.63A5.52,5.52,0,0,1,76.77,5a3.06,3.06,0,0,0-.31,1h-.15a2.68,2.68,0,0,0-2.15-1c-1.81,0-2.71,1.48-2.71,3.1a2.65,2.65,0,0,0,3.81,2.42V8.22c.28,0,.54.06.82.06s.54,0,.82-.06Z"/>
        <path class="cls-2"
              d="M84.26,5.1c.66,0,1.48-.07,1.66.71a2.59,2.59,0,0,1,0,.49c0,1-.56,1.49-1.71,1.39Zm-1.63,6.12c.27,0,.54-.06.82-.06s.54,0,.81.06V8.11h.08c.23.37.54.8.7,1.07l1.3,2c.33,0,.66-.06,1-.06s.66,0,1,.06l-.42-.61c-.66-.9-1.34-1.79-1.93-2.7,1-.22,1.7-.81,1.7-1.76a1.45,1.45,0,0,0-.94-1.38,5,5,0,0,0-1.78-.2H82.63Z"/>
        <path class="cls-2"
              d="M94,4.57c.27,0,.54.06.82.06s.55,0,.82-.06V7.32a11.08,11.08,0,0,0,.07,1.83,1.71,1.71,0,0,0,.58,1.12,1.87,1.87,0,0,0,1.25.41,1.82,1.82,0,0,0,1.93-1.16,6.8,6.8,0,0,0,.2-2V4.57a2.39,2.39,0,0,0,.87,0V8c0,1.11,0,2.12-1.15,2.81a3.86,3.86,0,0,1-2.07.51c-1.31,0-2.74-.37-3.15-1.63A4,4,0,0,1,94,8.52Z"/>
        <path class="cls-2"
              d="M108.1,5.1h.67c.57,0,1,.51,1,1.29a1.22,1.22,0,0,1-1,1.3,4.3,4.3,0,0,1-.72.09Zm0,3.2c2,0,3.38-.36,3.38-2.1,0-1.08-.82-1.63-2.33-1.63h-2.69v6.65c.27,0,.55-.06.82-.06s.55,0,.82.06Z"/>
        <path class="cls-2"
              d="M120.5,5a2.41,2.41,0,0,1,2.28,2.69c0,1.61-.75,3.1-2.43,3.1a2.31,2.31,0,0,1-2.28-2.6C118.07,6,119,5,120.5,5m4.09,2.88c0-1.51-.92-3.44-4-3.44-2.71,0-4.28,1.55-4.28,3.48,0,2.19,1.62,3.45,4,3.45,2.66,0,4.31-1.6,4.29-3.49"/>
    </g>
</svg>