<svg xmlns="http://www.w3.org/2000/svg" viewBox="0 0 80 80">
    <defs>
        <style>.cls-1{fill:#fff;}.cls-2{fill:#adc0bd;}</style>
    </defs>
    <g id="ilustraciones">
        <circle class="cls-1" cx="40" cy="40" r="40"/>
        <path class="cls-2"
              d="M38.84,1h2.83A39.75,39.75,0,0,1,58.43,5.57,39.1,39.1,0,0,1,77.28,28.28a37.44,37.44,0,0,1,1.58,7.92A61.12,61.12,0,0,1,79,42.55a38.48,38.48,0,0,1-5.12,17A39,39,0,0,1,41.64,79H38.42a47.34,47.34,0,0,1-4.9-.53A38.93,38.93,0,0,1,1.09,41.59a16.29,16.29,0,0,1,0-3.49c0-1.07.19-2.12.22-3.19l.08-.09A38.83,38.83,0,0,1,17.25,8.31,39.25,39.25,0,0,1,38.84,1M36.53,4.77a7.76,7.76,0,0,1-1.26.16c-.63.13-1.27.2-1.89.33-.26.07-.53.11-.79.17L32,5.58c-.63.16-1.26.31-1.87.53l-.35.08-.48.18-.48.14-.24.17q.21.41.39.84c.18.41.37.82.56,1.23s.48,1.08.7,1.62.43,1,.63,1.43c.41.88.79,1.78,1.19,2.66,2,4.46,4,8.9,6,13.35.21.48.43,1,.63,1.43s.43.94.64,1.42a3.57,3.57,0,0,0,.82,1.41,3,3,0,0,0,.75-1.28c.24-.51.46-1,.69-1.55,2.15-4.83,4.32-9.64,6.46-14.47l.63-1.42c.21-.47.43-.95.63-1.42s.43-.95.64-1.43.46-1,.68-1.56S51,8,51.16,7.52c.14-.29.27-.59.42-.87l-.73-.29-.48-.16L50,6.11c-.61-.22-1.24-.36-1.86-.54s-.95-.2-1.42-.32c-.64-.1-1.27-.19-1.9-.32a7.74,7.74,0,0,1-1.27-.16c-.79-.07-1.59,0-2.38-.16-1.55-.08-3.1.1-4.65.16m-14,4.54A37.31,37.31,0,0,0,10.41,20.84a4.48,4.48,0,0,0,.45,1.08c.24.46.46.94.69,1.41s.52,1.05.79,1.58c2.77,5.61,5.59,11.2,8.35,16.82.07.15.15.3.23.45.31.63.63,1.27.94,1.91q3.24,6.55,6.51,13.1a.56.56,0,0,0,.59.38,14.61,14.61,0,0,0,.67-1.38c.17-.44.37-.87.56-1.3s.35-.83.53-1.24.38-.86.56-1.3.37-.82.54-1.24q2.09-4.76,4.18-9.52a.86.86,0,0,1,.88-.55h6.35a.9.9,0,0,1,.9.62c1.38,3.15,2.77,6.3,4.14,9.45l.54,1.24c.18.44.37.87.56,1.3s.36.83.53,1.24c.41.88.73,1.8,1.22,2.65h.38c1.76-3.37,3.41-6.8,5.12-10.2q5.7-11.55,11.45-23.08c.29-.56.54-1.14.84-1.7A10.81,10.81,0,0,1,69.77,21c-.32-.39-.59-.82-.87-1.23A37.12,37.12,0,0,0,57.57,9.31,1.75,1.75,0,0,0,57,9.09q-3,6.5-5.87,13c-.25.59-.53,1.16-.77,1.74l-.57,1.24c-.23.54-.48,1.07-.7,1.62s-.48,1-.71,1.55q-2,4.5-4,9a5.64,5.64,0,0,1-.48,1,1.38,1.38,0,0,1-1,.27c-2,0-3.92,0-5.88,0a1,1,0,0,1-1-.57q-2.18-4.8-4.33-9.62c-.23-.52-.47-1-.7-1.55s-.48-1.08-.72-1.62l-.69-1.56c-2.14-4.83-4.36-9.63-6.49-14.46a4.34,4.34,0,0,0-.54.25M73.08,27.66c-.71,1.55-1.51,3.05-2.25,4.59-.22.42-.43.84-.63,1.27l-.63,1.27-.24.45c-.07.16-.15.33-.23.49l-.16.33c-.08.14-.16.3-.23.45l-.39.82c-2.59,5.24-5.23,10.44-7.8,15.68l-.16.31L60,54c-.11.21-.21.42-.31.64l-.31.63-.16.32c-.07.15-.15.29-.23.44-.25.53-.52,1.06-.78,1.59-1.94,4-3.92,7.89-5.89,11.83a1.24,1.24,0,0,1-1.78.61c-.65-.46-.8-1.3-1.14-2-.23-.52-.47-1-.69-1.56C46.4,61.19,44,55.9,41.66,50.6c-.21-.47-.43-.94-.63-1.42s-.44-1-.61-1.45a.44.44,0,0,0-.61-.17c-.33.57-.55,1.21-.83,1.81-2.38,5.34-4.78,10.67-7.14,16l-.56,1.23c-.22.54-.47,1.07-.7,1.62a14.08,14.08,0,0,1-.68,1.41,1.23,1.23,0,0,1-1.44.47,1.51,1.51,0,0,1-.79-.82c-2-4-4-7.89-5.9-11.85l-.31-.63c-.2-.43-.41-.85-.63-1.27l-.16-.32c-.1-.21-.2-.42-.31-.63s-.21-.42-.32-.63-.15-.35-.23-.52-.26-.5-.39-.76-.31-.63-.48-.95c-2.57-5.24-5.23-10.44-7.8-15.69,0-.08-.11-.24-.15-.32-.18-.38-.37-.75-.55-1.13l-.56-1.09c-.07-.17-.15-.33-.22-.5l-.24-.44C8.63,31,7.83,29.34,7,27.74a7,7,0,0,0-.62,1.59A35.06,35.06,0,0,0,8.72,56.17s0,.13.06.17c.41.7.79,1.43,1.23,2.12A35.83,35.83,0,0,0,26.43,72.63l.8.32.58.24.68.23.48.18.47.15c.41.13.83.23,1.23.36.63.17,1.27.32,1.9.48.27,0,.53.09.79.15s.54.1.8.17a35.26,35.26,0,0,0,3.83.4,18.63,18.63,0,0,0,3.95,0,29.65,29.65,0,0,0,4-.41c.26-.07.53-.11.8-.16s.53-.11.79-.15c.64-.16,1.27-.31,1.9-.48l1.22-.36.49-.17.33-.09c.47-.18.94-.35,1.41-.54l.8-.32a35.92,35.92,0,0,0,19.92-21.7,34.75,34.75,0,0,0-.51-23.27Z"/>
    </g>
</svg>