<svg xmlns="http://www.w3.org/2000/svg" viewBox="0 0 120 35">
    <defs>
        <style>.cls-1{fill:#fff;}.cls-2{fill:#adc0bd;fill-rule:evenodd;}</style>
    </defs>
    <g id="ilustraciones">
        <polygon class="cls-1" points="120 35 0 35 0 0 63.23 0 61.54 8.66 120 8.66 120 35"/>
        <polygon class="cls-2"
                 points="2.61 32.93 10.99 32.93 14.26 17.71 14.35 17.71 20.18 32.93 28.35 32.93 34.73 2.54 26.61 2.54 23.46 17.59 23.38 17.59 17.41 2.54 8.91 2.54 2.61 32.93 2.61 32.93"/>
        <polygon class="cls-2"
                 points="44.15 32.93 52.06 32.93 54.41 21.84 54.65 21.66 58.02 32.93 65.88 32.93 62.54 20.74 70.95 10.84 61.64 10.84 55.38 18.38 55.13 18.38 58.62 2.54 50.45 2.54 44.15 32.93 44.15 32.93"/>
        <path class="cls-2"
              d="M92.76,32.93h7.91l2.47-11.7c.51-2.3,1-3.87,3.67-3.87,1.36,0,1.85.55,1.74,1.79-.08.9-.56,2.75-.81,4l-2.27,9.76h8.43l2.68-12.47c.34-1.62.64-3.19.76-4.16.45-3.68-1.75-6.06-5.75-6-3.52,0-5,2.12-6.66,4.12h-.08l.64-3.58H97.36l-4.6,22.09Z"/>
        <path class="cls-2"
              d="M37.65,5.08c0-2,2.08-3.58,4.64-3.58s4.65,1.6,4.65,3.58-2.08,3.58-4.65,3.58-4.64-1.6-4.64-3.58ZM32.48,32.93H40.4L45,10.84H37.08l-4.6,22.09Z"/>
        <path class="cls-2"
              d="M76.78,23.56c.7-3.86,1.41-7.55,4.45-7.66,2.07-.08,2.07,1.84,1.52,5.26-.3,1.9-1.41,6.41-3.91,6.36s-2.39-2.21-2.06-4Zm-8.94-.42c-.81,8,5.52,10.57,11,10.35,9.85-.41,12.42-8,13.32-13.54.94-5.79-4.16-10-10.63-10-9,0-12.93,5.37-13.72,13.16Z"/>
    </g>
</svg>