<svg xmlns="http://www.w3.org/2000/svg" viewBox="0 0 80 80">
    <defs>
        <style>.cls-1,.cls-3{fill:#fff;}.cls-2{fill:#adc0bd;}.cls-2,.cls-3{fill-rule:evenodd;}</style>
    </defs>
    <g id="ilustraciones">
        <rect class="cls-1" width="80" height="80" rx="15.32"/>
        <path class="cls-2"
              d="M15.28,1,64.84,1A14.22,14.22,0,0,1,79,15.25V64.81A14.25,14.25,0,0,1,64.78,79L15.19,79A14.27,14.27,0,0,1,1,64.75l.06-49.56A14.21,14.21,0,0,1,15.28,1Z"/>
        <path class="cls-3"
              d="M68,36.58H62.36L60,41h4l4-4.43Zm3.75,7.19h-5.5V55.66c0,3.64-2.45,4.69-4.26,4.69s-3.61-.64-3.58-3.81V43.77H52.92l0,13.55c0,5.25,3,7.58,7.14,7.58a6.88,6.88,0,0,0,6.38-3.44h.06v2.88h5.3V43.77Z"/>
        <path class="cls-3"
              d="M48.61,49.22c0-5.1-5.36-6-8.33-6-4.29,0-8.74.9-9.41,7.2H36.2c.17-1.2.67-2.86,3.41-2.86,1.42,0,3.64.12,3.64,2.39,0,1.17-1.08,1.52-2,1.63l-5,.73c-3.52.5-6.14,2.56-6.14,6.59,0,4.25,3.26,6,6.38,6a8.59,8.59,0,0,0,6.79-3,8.67,8.67,0,0,0,.52,2.41l4.75,0c0-2.27,0-3.93,0-4V49.22Z"/>
        <path class="cls-3"
              d="M25.13,36.58H19.62v7.16H16.76v3.88h2.83v12.5c0,2.65.84,4.46,5.62,4.46h.73c.88,0,1.75-.06,2.59-.09V60.38c-.37,0-.78.09-1.13.09-2.25,0-2.3-.47-2.3-1.69l0-11.16h3.43V43.74H25.13V36.58Z"/>
        <polygon class="cls-3" points="14.23 36.55 8.28 36.55 8.26 64.31 14.2 64.31 14.23 36.55 14.23 36.55"/>
        <path class="cls-2"
              d="M43.25,57V54.32c-.55.44-1.49.79-3.76,1.11-2.07.35-3.76.87-3.76,3.12A2.42,2.42,0,0,0,38.3,61c2.44,0,5-1.54,5-4.05Z"/>
    </g>
</svg>