<svg width="64" height="30" viewBox="0 0 64 30" fill="none" xmlns="http://www.w3.org/2000/svg">
    <path d="M19.8207 11.801C19.8207 13.461 19.6107 14.971 19.1907 16.331C18.7707 17.671 18.1407 18.831 17.3007 19.811C16.4807 20.791 15.4507 21.541 14.2107 22.061C12.9907 22.581 11.5707 22.841 9.9507 22.841C8.2707 22.841 6.8107 22.581 5.5707 22.061C4.3307 21.521 3.3007 20.771 2.4807 19.811C1.6607 18.831 1.0507 17.661 0.650703 16.301C0.250703 14.941 0.0507033 13.431 0.0507033 11.771C0.0507033 9.57102 0.410703 7.65102 1.1307 6.01102C1.8507 4.37102 2.9407 3.09102 4.4007 2.17102C5.8807 1.25101 7.7407 0.791015 9.9807 0.791015C12.1207 0.791015 13.9207 1.25101 15.3807 2.17102C16.8407 3.07102 17.9407 4.35102 18.6807 6.01102C19.4407 7.65102 19.8207 9.58102 19.8207 11.801ZM2.9007 11.801C2.9007 13.601 3.1507 15.151 3.6507 16.451C4.1507 17.751 4.9207 18.751 5.9607 19.451C7.0207 20.151 8.3507 20.501 9.9507 20.501C11.5707 20.501 12.8907 20.151 13.9107 19.451C14.9507 18.751 15.7207 17.751 16.2207 16.451C16.7207 15.151 16.9707 13.601 16.9707 11.801C16.9707 9.10101 16.4107 6.99101 15.2907 5.47102C14.1707 3.93102 12.4007 3.16101 9.9807 3.16101C8.3607 3.16101 7.0207 3.51102 5.9607 4.21102C4.9207 4.89102 4.1507 5.88101 3.6507 7.18101C3.1507 8.46102 2.9007 10.001 2.9007 11.801ZM8.0907 11.951C8.0907 11.211 8.2707 10.691 8.6307 10.391C8.9907 10.091 9.4207 9.94102 9.9207 9.94102C10.4407 9.94102 10.8807 10.091 11.2407 10.391C11.6207 10.691 11.8107 11.211 11.8107 11.951C11.8107 12.671 11.6207 13.191 11.2407 13.511C10.8807 13.831 10.4407 13.991 9.9207 13.991C9.4207 13.991 8.9907 13.831 8.6307 13.511C8.2707 13.191 8.0907 12.671 8.0907 11.951ZM24.5782 23.441C25.0982 24.501 25.7282 25.381 26.4682 26.081C27.2282 26.801 28.0582 27.331 28.9582 27.671C29.8782 28.011 30.8282 28.181 31.8082 28.181C32.7682 28.181 33.6982 28.011 34.5982 27.671C35.4982 27.331 36.3282 26.801 37.0882 26.081C37.8482 25.381 38.4782 24.501 38.9782 23.441L40.2382 24.101C39.5982 25.361 38.8582 26.401 38.0182 27.221C37.1982 28.061 36.2682 28.691 35.2282 29.111C34.2082 29.531 33.0682 29.741 31.8082 29.741C30.5682 29.741 29.4282 29.531 28.3882 29.111C27.3682 28.691 26.4382 28.061 25.5982 27.221C24.7582 26.401 24.0082 25.361 23.3482 24.101L24.5782 23.441ZM63.5395 11.801C63.5395 13.461 63.3295 14.971 62.9095 16.331C62.4895 17.671 61.8595 18.831 61.0195 19.811C60.1995 20.791 59.1695 21.541 57.9295 22.061C56.7095 22.581 55.2895 22.841 53.6695 22.841C51.9895 22.841 50.5295 22.581 49.2895 22.061C48.0495 21.521 47.0195 20.771 46.1995 19.811C45.3795 18.831 44.7695 17.661 44.3695 16.301C43.9695 14.941 43.7695 13.431 43.7695 11.771C43.7695 9.57102 44.1295 7.65102 44.8495 6.01102C45.5695 4.37102 46.6595 3.09102 48.1195 2.17102C49.5995 1.25101 51.4595 0.791015 53.6995 0.791015C55.8395 0.791015 57.6395 1.25101 59.0995 2.17102C60.5595 3.07102 61.6595 4.35102 62.3995 6.01102C63.1595 7.65102 63.5395 9.58102 63.5395 11.801ZM46.6195 11.801C46.6195 13.601 46.8695 15.151 47.3695 16.451C47.8695 17.751 48.6395 18.751 49.6795 19.451C50.7395 20.151 52.0695 20.501 53.6695 20.501C55.2895 20.501 56.6095 20.151 57.6295 19.451C58.6695 18.751 59.4395 17.751 59.9395 16.451C60.4395 15.151 60.6895 13.601 60.6895 11.801C60.6895 9.10101 60.1295 6.99101 59.0095 5.47102C57.8895 3.93102 56.1195 3.16101 53.6995 3.16101C52.0795 3.16101 50.7395 3.51102 49.6795 4.21102C48.6395 4.89102 47.8695 5.88101 47.3695 7.18101C46.8695 8.46102 46.6195 10.001 46.6195 11.801ZM51.8095 11.951C51.8095 11.211 51.9895 10.691 52.3495 10.391C52.7095 10.091 53.1395 9.94102 53.6395 9.94102C54.1595 9.94102 54.5995 10.091 54.9595 10.391C55.3395 10.691 55.5295 11.211 55.5295 11.951C55.5295 12.671 55.3395 13.191 54.9595 13.511C54.5995 13.831 54.1595 13.991 53.6395 13.991C53.1395 13.991 52.7095 13.831 52.3495 13.511C51.9895 13.191 51.8095 12.671 51.8095 11.951Z"
          fill="#9BA9A7"/>
</svg>
