<svg width="170" height="34" viewBox="0 0 170 34" fill="none" xmlns="http://www.w3.org/2000/svg">
    <path d="M20.1768 2.62402H1.06055L0.987305 0.866211H20.1768V2.62402ZM35.1807 31.5107H32.6465L22.1436 4.26465H24.7217L35.1807 31.5107ZM54.8721 31.4521H35.6826V29.6943H54.8721V31.4521ZM67.2832 33.0928H63.9287C62.2002 31.1104 60.8574 28.9473 59.9004 26.6035C58.9434 24.2598 58.4648 21.6182 58.4648 18.6787C58.4648 15.7393 58.9434 13.0977 59.9004 10.7539C60.8574 8.41016 62.2002 6.24707 63.9287 4.26465H67.2832V4.41113C66.4922 5.12402 65.7354 5.94922 65.0127 6.88672C64.2998 7.81445 63.6357 8.89844 63.0205 10.1387C62.4346 11.3398 61.9561 12.6631 61.585 14.1084C61.2236 15.5537 61.043 17.0771 61.043 18.6787C61.043 20.3486 61.2188 21.877 61.5703 23.2637C61.9316 24.6504 62.415 25.9688 63.0205 27.2188C63.6064 28.4199 64.2754 29.5039 65.0273 30.4707C65.7793 31.4473 66.5312 32.2725 67.2832 32.9463V33.0928ZM84.0865 4.52762L81.8065 5.27762C82.5565 6.86762 84.2365 11.4876 84.7465 13.1976L87.0865 12.3876C86.5765 10.7076 84.7465 5.93762 84.0865 4.52762ZM97.4365 6.44762L94.6465 5.63762C94.0765 10.1676 92.2165 14.9676 89.8465 17.9976C86.8165 21.8376 82.3465 24.7176 78.0865 25.9776L80.1265 28.0476C84.3865 26.5476 88.7965 23.4576 91.8865 19.3776C94.3765 16.1376 95.9665 11.8776 96.8965 8.12762C97.0165 7.67762 97.2265 6.92762 97.4365 6.44762ZM75.7165 6.32762L73.3765 7.16762C74.0665 8.48762 76.1365 13.5576 76.7065 15.4176L79.1065 14.5476C78.3865 12.5676 76.5265 8.00762 75.7165 6.32762ZM112.408 18.6787C112.408 21.6182 111.93 24.2598 110.973 26.6035C110.016 28.9473 108.673 31.1104 106.944 33.0928H103.59V32.9463C104.342 32.2725 105.094 31.4473 105.846 30.4707C106.607 29.5039 107.276 28.4199 107.853 27.2188C108.458 25.9688 108.937 24.6504 109.288 23.2637C109.649 21.877 109.83 20.3486 109.83 18.6787C109.83 17.0771 109.649 15.5537 109.288 14.1084C108.927 12.6631 108.448 11.3398 107.853 10.1387C107.237 8.89844 106.568 7.81445 105.846 6.88672C105.133 5.94922 104.381 5.12402 103.59 4.41113V4.26465H106.944C108.673 6.24707 110.016 8.41016 110.973 10.7539C111.93 13.0977 112.408 15.7393 112.408 18.6787ZM135.19 31.4521H116.001V29.6943H135.19V31.4521ZM148.729 4.26465L138.227 31.5107H135.692L146.151 4.26465H148.729ZM169.886 2.62402H150.77L150.696 0.866211H169.886V2.62402Z"
          fill="#9BA9A7"/>
</svg>
