<svg width="108" height="31" viewBox="0 0 108 31" fill="none" xmlns="http://www.w3.org/2000/svg">
    <path d="M9.69043 30.8374H6.33594C4.60742 28.855 3.26465 26.6919 2.30762 24.3481C1.35059 22.0044 0.87207 19.3628 0.87207 16.4233C0.87207 13.4839 1.35059 10.8423 2.30762 8.49854C3.26465 6.15479 4.60742 3.9917 6.33594 2.00928H9.69043V2.15576C8.89941 2.86865 8.14258 3.69385 7.41992 4.63135C6.70703 5.55908 6.04297 6.64307 5.42773 7.8833C4.8418 9.08447 4.36328 10.4077 3.99219 11.853C3.63086 13.2983 3.4502 14.8218 3.4502 16.4233C3.4502 18.0933 3.62598 19.6216 3.97754 21.0083C4.33887 22.395 4.82227 23.7134 5.42773 24.9634C6.01367 26.1646 6.68262 27.2485 7.43457 28.2153C8.18652 29.1919 8.93848 30.0171 9.69043 30.6909V30.8374ZM39.4199 0.251465C39.3223 1.89209 38.79 3.23486 37.8232 4.27979C36.8662 5.32471 35.5625 5.84717 33.9121 5.84717C32.2617 5.84717 30.9531 5.32471 29.9863 4.27979C29.0293 3.23486 28.5068 1.89209 28.4189 0.251465H30.8506C30.9678 1.54053 31.2852 2.47803 31.8027 3.06396C32.3301 3.6499 33.0381 3.94287 33.9268 3.94287C34.7959 3.94287 35.4893 3.6499 36.0068 3.06396C36.5342 2.47803 36.8662 1.54053 37.0029 0.251465H39.4199ZM61.7129 16.7322C61.7129 17.9722 61.5429 19.1022 61.2029 20.1222C60.8829 21.1422 60.3929 22.0222 59.7329 22.7622C59.0729 23.4822 58.2629 24.0422 57.3029 24.4422C56.3429 24.8222 55.2329 25.0122 53.9729 25.0122C52.6729 25.0122 51.5329 24.8122 50.5529 24.4122C49.5929 24.0122 48.7929 23.4522 48.1529 22.7322C47.5129 21.9922 47.0329 21.1222 46.7129 20.1222C46.3929 19.1022 46.2329 17.9722 46.2329 16.7322H49.0229C49.0229 17.9922 49.1929 19.0822 49.5329 20.0022C49.8929 20.9222 50.4429 21.6322 51.1829 22.1322C51.9229 22.6322 52.8529 22.8822 53.9729 22.8822C55.1129 22.8822 56.0429 22.6322 56.7629 22.1322C57.5029 21.6322 58.0429 20.9222 58.3829 20.0022C58.7429 19.0822 58.9229 17.9922 58.9229 16.7322H61.7129ZM79.5059 0.251465C79.4082 1.89209 78.876 3.23486 77.9092 4.27979C76.9521 5.32471 75.6484 5.84717 73.998 5.84717C72.3477 5.84717 71.0391 5.32471 70.0723 4.27979C69.1152 3.23486 68.5928 1.89209 68.5049 0.251465H70.9365C71.0537 1.54053 71.3711 2.47803 71.8887 3.06396C72.416 3.6499 73.124 3.94287 74.0127 3.94287C74.8818 3.94287 75.5752 3.6499 76.0928 3.06396C76.6201 2.47803 76.9521 1.54053 77.0889 0.251465H79.5059ZM107.067 16.4233C107.067 19.3628 106.589 22.0044 105.632 24.3481C104.675 26.6919 103.332 28.855 101.604 30.8374H98.249V30.6909C99.001 30.0171 99.7529 29.1919 100.505 28.2153C101.267 27.2485 101.936 26.1646 102.512 24.9634C103.117 23.7134 103.596 22.395 103.947 21.0083C104.309 19.6216 104.489 18.0933 104.489 16.4233C104.489 14.8218 104.309 13.2983 103.947 11.853C103.586 10.4077 103.107 9.08447 102.512 7.8833C101.896 6.64307 101.228 5.55908 100.505 4.63135C99.792 3.69385 99.04 2.86865 98.249 2.15576V2.00928H101.604C103.332 3.9917 104.675 6.15479 105.632 8.49854C106.589 10.8423 107.067 13.4839 107.067 16.4233Z" fill="#9BA9A7"/>
</svg>
