<svg width="28" height="23" viewBox="0 0 28 23" fill="none" xmlns="http://www.w3.org/2000/svg">
    <path d="M3.81934 10.1128H0.318359V5.93799H3.81934V10.1128ZM3.81934 22.3003H0.318359V18.1255H3.81934V22.3003ZM27.0703 7.08057C27.0703 8.04736 26.8994 8.9458 26.5576 9.77588C26.2256 10.5962 25.7568 11.3091 25.1514 11.9146C24.3994 12.6665 23.5107 13.2329 22.4854 13.6138C21.46 13.9849 20.166 14.1704 18.6035 14.1704H15.7031V22.3003H12.8027V0.48877H18.7207C20.0293 0.48877 21.1377 0.601074 22.0459 0.825684C22.9541 1.04053 23.7598 1.38232 24.4629 1.85107C25.293 2.40771 25.9326 3.10107 26.3818 3.93115C26.8408 4.76123 27.0703 5.81104 27.0703 7.08057ZM24.0527 7.15381C24.0527 6.40186 23.9209 5.74756 23.6572 5.19092C23.3936 4.63428 22.9932 4.18018 22.4561 3.82861C21.9873 3.52588 21.4502 3.31104 20.8447 3.18408C20.249 3.04736 19.4922 2.979 18.5742 2.979H15.7031V11.6948H18.1494C19.3213 11.6948 20.2734 11.5923 21.0059 11.3872C21.7383 11.1724 22.334 10.8354 22.793 10.3765C23.252 9.90771 23.5742 9.41455 23.7598 8.89697C23.9551 8.37939 24.0527 7.79834 24.0527 7.15381Z"
          fill="#9BA9A7"/>
</svg>
