<svg width="142" height="30" viewBox="0 0 142 30" fill="none" xmlns="http://www.w3.org/2000/svg">
    <path d="M13.6602 27.8682H11.126L0.623047 0.62207H3.20117L13.6602 27.8682ZM37.2373 29.4502H33.8828C32.1543 27.4678 30.8115 25.3047 29.8545 22.9609C28.8975 20.6172 28.4189 17.9756 28.4189 15.0361C28.4189 12.0967 28.8975 9.45508 29.8545 7.11133C30.8115 4.76758 32.1543 2.60449 33.8828 0.62207H37.2373V0.768555C36.4463 1.48145 35.6895 2.30664 34.9668 3.24414C34.2539 4.17187 33.5898 5.25586 32.9746 6.49609C32.3887 7.69727 31.9102 9.02051 31.5391 10.4658C31.1777 11.9111 30.9971 13.4346 30.9971 15.0361C30.9971 16.7061 31.1729 18.2344 31.5244 19.6211C31.8857 21.0078 32.3691 22.3262 32.9746 23.5762C33.5605 24.7773 34.2295 25.8613 34.9814 26.8281C35.7334 27.8047 36.4854 28.6299 37.2373 29.3037V29.4502ZM54.043 13.7178C54.043 15.2217 53.5059 16.5107 52.4316 17.585C51.3574 18.6494 50.0684 19.1816 48.5645 19.1816C47.0605 19.1816 45.7715 18.6494 44.6973 17.585C43.6328 16.5107 43.1006 15.2217 43.1006 13.7178C43.1006 12.2139 43.6328 10.9297 44.6973 9.86523C45.7715 8.79102 47.0605 8.25391 48.5645 8.25391C50.0684 8.25391 51.3574 8.79102 52.4316 9.86523C53.5059 10.9297 54.043 12.2139 54.043 13.7178ZM71.1776 24.435C77.7776 24.435 83.0576 19.155 83.0576 12.555H81.7976C81.7976 18.465 77.0876 23.175 71.1776 23.175C65.2676 23.175 60.5576 18.465 60.5576 12.555H59.2976C59.2976 19.155 64.5776 24.435 71.1776 24.435ZM99.2266 13.7178C99.2266 15.2217 98.6895 16.5107 97.6152 17.585C96.541 18.6494 95.252 19.1816 93.748 19.1816C92.2441 19.1816 90.9551 18.6494 89.8809 17.585C88.8164 16.5107 88.2842 15.2217 88.2842 13.7178C88.2842 12.2139 88.8164 10.9297 89.8809 9.86523C90.9551 8.79102 92.2441 8.25391 93.748 8.25391C95.252 8.25391 96.541 8.79102 97.6152 9.86523C98.6895 10.9297 99.2266 12.2139 99.2266 13.7178ZM113.923 15.0361C113.923 17.9756 113.444 20.6172 112.487 22.9609C111.53 25.3047 110.188 27.4678 108.459 29.4502H105.104V29.3037C105.856 28.6299 106.608 27.8047 107.36 26.8281C108.122 25.8613 108.791 24.7773 109.367 23.5762C109.973 22.3262 110.451 21.0078 110.803 19.6211C111.164 18.2344 111.345 16.7061 111.345 15.0361C111.345 13.4346 111.164 11.9111 110.803 10.4658C110.441 9.02051 109.963 7.69727 109.367 6.49609C108.752 5.25586 108.083 4.17187 107.36 3.24414C106.647 2.30664 105.896 1.48145 105.104 0.768555V0.62207H108.459C110.188 2.60449 111.53 4.76758 112.487 7.11133C113.444 9.45508 113.923 12.0967 113.923 15.0361ZM141.719 0.62207L131.216 27.8682H128.682L139.141 0.62207H141.719Z"
          fill="#9BA9A7"/>
</svg>
