<svg width="128" height="32" viewBox="0 0 128 32" fill="none" xmlns="http://www.w3.org/2000/svg">
    <path d="M9.69043 31.582H6.33594C4.60742 29.5996 3.26465 27.4365 2.30762 25.0928C1.35059 22.749 0.87207 20.1074 0.87207 17.168C0.87207 14.2285 1.35059 11.5869 2.30762 9.24316C3.26465 6.89941 4.60742 4.73633 6.33594 2.75391H9.69043V2.90039C8.89941 3.61328 8.14258 4.43848 7.41992 5.37598C6.70703 6.30371 6.04297 7.3877 5.42773 8.62793C4.8418 9.8291 4.36328 11.1523 3.99219 12.5977C3.63086 14.043 3.4502 15.5664 3.4502 17.168C3.4502 18.8379 3.62598 20.3662 3.97754 21.7529C4.33887 23.1396 4.82227 24.458 5.42773 25.708C6.01367 26.9092 6.68262 27.9932 7.43457 28.96C8.18652 29.9365 8.93848 30.7617 9.69043 31.4355V31.582ZM34.6553 11.9678C34.6357 12.9346 34.5234 13.8867 34.3184 14.8242C34.123 15.7617 33.8057 16.5967 33.3662 17.3291C32.917 18.0811 32.375 18.6719 31.7402 19.1016C31.1055 19.5312 30.2998 19.7461 29.3232 19.7461C28.4053 19.7461 27.5898 19.5557 26.877 19.1748C26.1641 18.7842 25.3975 18.0908 24.5771 17.0947C23.5811 15.874 22.8584 15.1074 22.4092 14.7949C21.96 14.4824 21.4912 14.3262 21.0029 14.3262C20.085 14.3262 19.3818 14.7559 18.8936 15.6152C18.4053 16.4648 18.1172 17.8467 18.0293 19.7607H15.583C15.6025 18.7842 15.71 17.8369 15.9053 16.9189C16.1104 15.9912 16.4277 15.1514 16.8574 14.3994C17.2773 13.6768 17.8242 13.0957 18.498 12.6562C19.1719 12.207 19.9775 11.9824 20.915 11.9824C21.8232 11.9824 22.6338 12.1729 23.3467 12.5537C24.0693 12.9248 24.8457 13.6182 25.6758 14.6338C26.457 15.5908 27.0967 16.2939 27.5947 16.7432C28.0928 17.1826 28.6396 17.4023 29.2354 17.4023C30.2412 17.4023 30.9785 16.9092 31.4473 15.9229C31.9258 14.9365 32.1797 13.6182 32.209 11.9678H34.6553ZM53.4238 0.996094C53.3262 2.63672 52.7939 3.97949 51.8271 5.02441C50.8701 6.06934 49.5664 6.5918 47.916 6.5918C46.2656 6.5918 44.957 6.06934 43.9902 5.02441C43.0332 3.97949 42.5107 2.63672 42.4229 0.996094H44.8545C44.9717 2.28516 45.2891 3.22266 45.8066 3.80859C46.334 4.39453 47.042 4.6875 47.9307 4.6875C48.7998 4.6875 49.4932 4.39453 50.0107 3.80859C50.5381 3.22266 50.8701 2.28516 51.0068 0.996094H53.4238ZM64.0168 20.3269L68.4568 11.4169H59.5468L64.0168 20.3269ZM85.5996 0.996094C85.502 2.63672 84.9697 3.97949 84.0029 5.02441C83.0459 6.06934 81.7422 6.5918 80.0918 6.5918C78.4414 6.5918 77.1328 6.06934 76.166 5.02441C75.209 3.97949 74.6865 2.63672 74.5986 0.996094H77.0303C77.1475 2.28516 77.4648 3.22266 77.9824 3.80859C78.5098 4.39453 79.2178 4.6875 80.1064 4.6875C80.9756 4.6875 81.6689 4.39453 82.1865 3.80859C82.7139 3.22266 83.0459 2.28516 83.1826 0.996094H85.5996ZM101.614 17.168C101.614 20.1074 101.136 22.749 100.179 25.0928C99.2217 27.4365 97.8789 29.5996 96.1504 31.582H92.7959V31.4355C93.5479 30.7617 94.2998 29.9365 95.0518 28.96C95.8135 27.9932 96.4824 26.9092 97.0586 25.708C97.6641 24.458 98.1426 23.1396 98.4941 21.7529C98.8555 20.3662 99.0361 18.8379 99.0361 17.168C99.0361 15.5664 98.8555 14.043 98.4941 12.5977C98.1328 11.1523 97.6543 9.8291 97.0586 8.62793C96.4434 7.3877 95.7744 6.30371 95.0518 5.37598C94.3389 4.43848 93.5869 3.61328 92.7959 2.90039V2.75391H96.1504C97.8789 4.73633 99.2217 6.89941 100.179 9.24316C101.136 11.5869 101.614 14.2285 101.614 17.168ZM127.077 11.9678C127.058 12.9346 126.945 13.8867 126.74 14.8242C126.545 15.7617 126.228 16.5967 125.788 17.3291C125.339 18.0811 124.797 18.6719 124.162 19.1016C123.527 19.5312 122.722 19.7461 121.745 19.7461C120.827 19.7461 120.012 19.5557 119.299 19.1748C118.586 18.7842 117.819 18.0908 116.999 17.0947C116.003 15.874 115.28 15.1074 114.831 14.7949C114.382 14.4824 113.913 14.3262 113.425 14.3262C112.507 14.3262 111.804 14.7559 111.315 15.6152C110.827 16.4648 110.539 17.8467 110.451 19.7607H108.005C108.024 18.7842 108.132 17.8369 108.327 16.9189C108.532 15.9912 108.85 15.1514 109.279 14.3994C109.699 13.6768 110.246 13.0957 110.92 12.6562C111.594 12.207 112.399 11.9824 113.337 11.9824C114.245 11.9824 115.056 12.1729 115.769 12.5537C116.491 12.9248 117.268 13.6182 118.098 14.6338C118.879 15.5908 119.519 16.2939 120.017 16.7432C120.515 17.1826 121.062 17.4023 121.657 17.4023C122.663 17.4023 123.4 16.9092 123.869 15.9229C124.348 14.9365 124.602 13.6182 124.631 11.9678H127.077Z"
          fill="#9BA9A7"/>
</svg>
