<svg width="127" height="32" viewBox="0 0 127 32" fill="none" xmlns="http://www.w3.org/2000/svg">
    <path d="M19.5127 11.4009C19.4932 12.3677 19.3809 13.3198 19.1758 14.2573C18.9805 15.1948 18.6631 16.0298 18.2236 16.7622C17.7744 17.5142 17.2324 18.105 16.5977 18.5347C15.9629 18.9644 15.1572 19.1792 14.1807 19.1792C13.2627 19.1792 12.4473 18.9888 11.7344 18.6079C11.0215 18.2173 10.2549 17.5239 9.43457 16.5278C8.43848 15.3071 7.71582 14.5405 7.2666 14.228C6.81738 13.9155 6.34863 13.7593 5.86035 13.7593C4.94238 13.7593 4.23926 14.189 3.75098 15.0483C3.2627 15.8979 2.97461 17.2798 2.88672 19.1938H0.44043C0.459961 18.2173 0.567383 17.27 0.762695 16.3521C0.967773 15.4243 1.28516 14.5845 1.71484 13.8325C2.13477 13.1099 2.68164 12.5288 3.35547 12.0894C4.0293 11.6401 4.83496 11.4155 5.77246 11.4155C6.68066 11.4155 7.49121 11.606 8.2041 11.9868C8.92676 12.3579 9.70312 13.0513 10.5332 14.0669C11.3145 15.0239 11.9541 15.7271 12.4521 16.1763C12.9502 16.6157 13.4971 16.8354 14.0928 16.8354C15.0986 16.8354 15.8359 16.3423 16.3047 15.356C16.7832 14.3696 17.0371 13.0513 17.0664 11.4009H19.5127ZM34.7217 31.0151H31.3672C29.6387 29.0327 28.2959 26.8696 27.3389 24.5259C26.3818 22.1821 25.9033 19.5405 25.9033 16.6011C25.9033 13.6616 26.3818 11.02 27.3389 8.67627C28.2959 6.33252 29.6387 4.16943 31.3672 2.18701H34.7217V2.3335C33.9307 3.04639 33.1738 3.87158 32.4512 4.80908C31.7383 5.73682 31.0742 6.8208 30.459 8.06104C29.873 9.26221 29.3945 10.5854 29.0234 12.0308C28.6621 13.4761 28.4814 14.9995 28.4814 16.6011C28.4814 18.271 28.6572 19.7993 29.0088 21.186C29.3701 22.5728 29.8535 23.8911 30.459 25.1411C31.0449 26.3423 31.7139 27.4263 32.4658 28.3931C33.2178 29.3696 33.9697 30.1948 34.7217 30.8687V31.0151ZM52.9043 0.429199C52.8066 2.06982 52.2744 3.4126 51.3076 4.45752C50.3506 5.50244 49.0469 6.0249 47.3965 6.0249C45.7461 6.0249 44.4375 5.50244 43.4707 4.45752C42.5137 3.4126 41.9912 2.06982 41.9033 0.429199H44.335C44.4521 1.71826 44.7695 2.65576 45.2871 3.2417C45.8145 3.82764 46.5225 4.12061 47.4111 4.12061C48.2803 4.12061 48.9736 3.82764 49.4912 3.2417C50.0186 2.65576 50.3506 1.71826 50.4873 0.429199H52.9043ZM63.4973 19.76L67.9373 10.85H59.0273L63.4973 19.76ZM85.0801 0.429199C84.9824 2.06982 84.4502 3.4126 83.4834 4.45752C82.5264 5.50244 81.2227 6.0249 79.5723 6.0249C77.9219 6.0249 76.6133 5.50244 75.6465 4.45752C74.6895 3.4126 74.167 2.06982 74.0791 0.429199H76.5107C76.6279 1.71826 76.9453 2.65576 77.4629 3.2417C77.9902 3.82764 78.6982 4.12061 79.5869 4.12061C80.4561 4.12061 81.1494 3.82764 81.667 3.2417C82.1943 2.65576 82.5264 1.71826 82.6631 0.429199H85.0801ZM111.935 11.4009C111.915 12.3677 111.803 13.3198 111.598 14.2573C111.402 15.1948 111.085 16.0298 110.646 16.7622C110.196 17.5142 109.654 18.105 109.02 18.5347C108.385 18.9644 107.579 19.1792 106.603 19.1792C105.685 19.1792 104.869 18.9888 104.156 18.6079C103.443 18.2173 102.677 17.5239 101.856 16.5278C100.86 15.3071 100.138 14.5405 99.6885 14.228C99.2393 13.9155 98.7705 13.7593 98.2822 13.7593C97.3643 13.7593 96.6611 14.189 96.1729 15.0483C95.6846 15.8979 95.3965 17.2798 95.3086 19.1938H92.8623C92.8818 18.2173 92.9893 17.27 93.1846 16.3521C93.3896 15.4243 93.707 14.5845 94.1367 13.8325C94.5566 13.1099 95.1035 12.5288 95.7773 12.0894C96.4512 11.6401 97.2568 11.4155 98.1943 11.4155C99.1025 11.4155 99.9131 11.606 100.626 11.9868C101.349 12.3579 102.125 13.0513 102.955 14.0669C103.736 15.0239 104.376 15.7271 104.874 16.1763C105.372 16.6157 105.919 16.8354 106.515 16.8354C107.521 16.8354 108.258 16.3423 108.727 15.356C109.205 14.3696 109.459 13.0513 109.488 11.4009H111.935ZM126.646 16.6011C126.646 19.5405 126.167 22.1821 125.21 24.5259C124.253 26.8696 122.91 29.0327 121.182 31.0151H117.827V30.8687C118.579 30.1948 119.331 29.3696 120.083 28.3931C120.845 27.4263 121.514 26.3423 122.09 25.1411C122.695 23.8911 123.174 22.5728 123.525 21.186C123.887 19.7993 124.067 18.271 124.067 16.6011C124.067 14.9995 123.887 13.4761 123.525 12.0308C123.164 10.5854 122.686 9.26221 122.09 8.06104C121.475 6.8208 120.806 5.73682 120.083 4.80908C119.37 3.87158 118.618 3.04639 117.827 2.3335V2.18701H121.182C122.91 4.16943 124.253 6.33252 125.21 8.67627C126.167 11.02 126.646 13.6616 126.646 16.6011Z"
          fill="#9BA9A7"/>
</svg>
