<svg width="66" height="24" viewBox="0 0 66 24" fill="none" xmlns="http://www.w3.org/2000/svg">
    <path d="M16.8965 13.9248C16.8965 15.5068 16.7207 16.8887 16.3691 18.0703C16.0273 19.2422 15.4609 20.2188 14.6699 21C13.918 21.7422 13.0391 22.2842 12.0332 22.626C11.0273 22.9678 9.85547 23.1387 8.51758 23.1387C7.15039 23.1387 5.95898 22.958 4.94336 22.5967C3.92773 22.2354 3.07324 21.7031 2.37988 21C1.58887 20.1992 1.01758 19.2324 0.666016 18.0996C0.324219 16.9668 0.15332 15.5752 0.15332 13.9248V0.873047H3.05371V14.0713C3.05371 15.2529 3.13184 16.1855 3.28809 16.8691C3.4541 17.5527 3.72754 18.1729 4.1084 18.7295C4.53809 19.3643 5.11914 19.8428 5.85156 20.165C6.59375 20.4873 7.48242 20.6484 8.51758 20.6484C9.5625 20.6484 10.4512 20.4922 11.1836 20.1797C11.916 19.8574 12.502 19.374 12.9414 18.7295C13.3223 18.1729 13.5908 17.5381 13.7471 16.8252C13.9131 16.1025 13.9961 15.209 13.9961 14.1445V0.873047H16.8965V13.9248ZM43.8096 6.32227L39.5469 22.6846H36.998L32.7939 10.0723L28.6191 22.6846H26.085L21.7783 6.32227H24.6494L27.6523 18.9932L31.7393 6.32227H34.0098L38.1992 18.9932L41.041 6.32227H43.8096ZM65.4199 13.9248C65.4199 15.5068 65.2441 16.8887 64.8926 18.0703C64.5508 19.2422 63.9844 20.2188 63.1934 21C62.4414 21.7422 61.5625 22.2842 60.5566 22.626C59.5508 22.9678 58.3789 23.1387 57.041 23.1387C55.6738 23.1387 54.4824 22.958 53.4668 22.5967C52.4512 22.2354 51.5967 21.7031 50.9033 21C50.1123 20.1992 49.541 19.2324 49.1895 18.0996C48.8477 16.9668 48.6768 15.5752 48.6768 13.9248V0.873047H51.5771V14.0713C51.5771 15.2529 51.6553 16.1855 51.8115 16.8691C51.9775 17.5527 52.251 18.1729 52.6318 18.7295C53.0615 19.3643 53.6426 19.8428 54.375 20.165C55.1172 20.4873 56.0059 20.6484 57.041 20.6484C58.0859 20.6484 58.9746 20.4922 59.707 20.1797C60.4395 19.8574 61.0254 19.374 61.4648 18.7295C61.8457 18.1729 62.1143 17.5381 62.2705 16.8252C62.4365 16.1025 62.5195 15.209 62.5195 14.1445V0.873047H65.4199V13.9248Z"
          fill="#9BA9A7"/>
</svg>
