<svg width="43" height="23" viewBox="0 0 43 23" fill="none" xmlns="http://www.w3.org/2000/svg">
    <path d="M19.168 0.615723L11.6387 11.397L19.1533 22.4272H15.7988L9.85156 13.4478L3.75781 22.4272H0.59375L8.19629 11.5288L0.769531 0.615723H4.10938L9.9834 9.47803L15.9893 0.615723H19.168ZM42.5215 11.5435C42.5215 13.5259 42.0869 15.3228 41.2178 16.9341C40.3584 18.5454 39.2109 19.7954 37.7754 20.6841C36.7793 21.2993 35.666 21.7437 34.4355 22.0171C33.2148 22.2905 31.6035 22.4272 29.6016 22.4272H24.0938V0.615723H29.543C31.6719 0.615723 33.3613 0.771973 34.6113 1.08447C35.8711 1.38721 36.9355 1.80713 37.8047 2.34424C39.2891 3.27197 40.4463 4.50732 41.2764 6.05029C42.1064 7.59326 42.5215 9.42432 42.5215 11.5435ZM39.4893 11.4995C39.4893 9.79053 39.1914 8.3501 38.5957 7.17822C38 6.00635 37.1113 5.0835 35.9297 4.40967C35.0703 3.92139 34.1572 3.58447 33.1904 3.39893C32.2236 3.20361 31.0664 3.10596 29.7188 3.10596H26.9941V19.937H29.7188C31.1152 19.937 32.3311 19.8345 33.3662 19.6294C34.4111 19.4243 35.3682 19.0435 36.2373 18.4868C37.3213 17.7935 38.1318 16.8804 38.6689 15.7476C39.2158 14.6147 39.4893 13.1987 39.4893 11.4995Z" fill="#9BA9A7"/>
</svg>
