<svg width="37" height="37" viewBox="0 0 37 37" fill="none" xmlns="http://www.w3.org/2000/svg">
    <path d="M26.8588 30.3961C25.2588 30.3961 23.9088 30.1561 22.8088 29.6761C21.7088 29.1761 20.8788 28.4761 20.3188 27.5761C19.7588 26.6761 19.4788 25.6061 19.4788 24.3661V23.9761H22.1488V24.3661C22.1488 25.6061 22.5388 26.5561 23.3188 27.2161C24.1188 27.8561 25.2188 28.1761 26.6188 28.1761C28.0188 28.1761 29.1488 27.8761 30.0088 27.2761C30.8688 26.6561 31.2988 25.6761 31.2988 24.3361C31.2988 23.3561 31.0688 22.6061 30.6088 22.0861C30.1488 21.5661 29.5488 21.2061 28.8088 21.0061C28.0888 20.7861 27.3188 20.6761 26.4988 20.6761H24.3388V18.4561H26.5888C27.3488 18.4561 28.0488 18.3361 28.6888 18.0961C29.3288 17.8561 29.8388 17.4661 30.2188 16.9261C30.6188 16.3661 30.8188 15.6461 30.8188 14.7661C30.8188 13.9661 30.6388 13.3161 30.2788 12.8161C29.9388 12.3161 29.4688 11.9461 28.8688 11.7061C28.2688 11.4461 27.6088 11.3161 26.8888 11.3161C26.0888 11.3161 25.3688 11.4561 24.7288 11.7361C24.0888 11.9961 23.5788 12.3961 23.1988 12.9361C22.8388 13.4761 22.6588 14.1561 22.6588 14.9761V15.3661H19.9588V14.8261C19.9588 13.6861 20.2488 12.6861 20.8288 11.8261C21.4288 10.9661 22.2388 10.2961 23.2588 9.81613C24.2988 9.33613 25.4888 9.09613 26.8288 9.09613C28.1488 9.09613 29.3088 9.30613 30.3088 9.72613C31.3288 10.1461 32.1288 10.7661 32.7088 11.5861C33.2888 12.4061 33.5788 13.4161 33.5788 14.6161C33.5788 15.4961 33.4188 16.2461 33.0988 16.8661C32.7788 17.4661 32.3588 17.9661 31.8388 18.3661C31.3188 18.7661 30.7588 19.0961 30.1588 19.3561V19.4761C31.2588 19.7961 32.1788 20.3761 32.9188 21.2161C33.6588 22.0561 34.0288 23.1561 34.0288 24.5161C34.0288 25.7361 33.7188 26.7861 33.0988 27.6661C32.4988 28.5461 31.6488 29.2261 30.5488 29.7061C29.4688 30.1661 28.2388 30.3961 26.8588 30.3961Z"
          fill="#9BA9A7"/>
    <path d="M16.3888 27.2143L2.16875 21.1543V18.3043L16.3888 12.2443V14.7643L4.35875 19.7443L16.3888 24.6943V27.2143Z"
          fill="#9BA9A7"/>
</svg>
