<svg id="Layer_1" data-name="Layer 1" xmlns="http://www.w3.org/2000/svg" viewBox="0 0 350 405"><defs><style>.cls-1{fill:#2d2b3d;}.cls-2{fill:#00e9cb;}</style></defs><path class="cls-1" d="M178,234v40c0,30.28-6,43.54-39,43.54H90.69a1,1,0,0,1-1-1V88.39a1,1,0,0,1,1-1h48c32,0,38.29,13.26,38.29,43.54v34.78c0,16.27-3.75,26.78-16.51,32.53v1.51C173.52,205.75,178,217,178,234ZM118.46,111.66V190h13c12.51,0,17.26-4.26,17.26-20V130.68c0-14.77-3.75-19-16.76-19Zm30.79,118.12c0-16-4.76-20-17.27-20H118.46v83.33h14c12.76,0,16.77-4.25,16.77-19Z"/><path class="cls-2" d="M230.14,254.61a25.93,25.93,0,0,0-21.2,11,53.38,53.38,0,0,0-3.49,5.67c-6.69,12.63-8.7,29.92,2.36,41h0l0,0a19.84,19.84,0,0,0,3.22,2.6,30.13,30.13,0,0,0,5,2.87,32.74,32.74,0,0,0,13.58,2.85h1a32.67,32.67,0,0,0,13.58-2.85,29.35,29.35,0,0,0,5-2.87,19.48,19.48,0,0,0,3.23-2.6l0,0h0c11.06-11.07,9-28.36,2.36-41a53.38,53.38,0,0,0-3.49-5.67,25.94,25.94,0,0,0-21.21-11Z"/></svg>