<svg id="Layer_1" data-name="Layer 1" xmlns="http://www.w3.org/2000/svg" viewBox="0 0 965 405">
    <defs>
        <style>.cls-1{fill:#2d2b3d;}.cls-2{fill:#00e7c9;}</style>
    </defs>
    <path class="cls-1"
          d="M177.37,234v40c0,30.27-6,43.54-39,43.54H90.06a1,1,0,0,1-1-1V88.41a1,1,0,0,1,1-1h48c32,0,38.28,13.27,38.28,43.54v34.79c0,16.26-3.75,26.77-16.51,32.52v1.51C172.87,205.74,177.37,217,177.37,234ZM117.82,111.65V190h13c12.51,0,17.27-4.26,17.27-20V130.67c0-14.76-3.76-19-16.77-19ZM148.6,229.76c0-16-4.76-20-17.27-20H117.82v83.33h14c12.76,0,16.77-4.25,16.77-19Z"/>
    <path class="cls-1"
          d="M265.52,316.8l-16.33-72.27h-20v72a1,1,0,0,1-1,1H201.42a1,1,0,0,1-1-1V88.41a1,1,0,0,1,1-1h48c32.53,0,38.78,13.27,38.78,43.54v71.82c0,17.27-5.25,28.53-15.26,34.78l18.72,78.82a1,1,0,0,1-1,1.26H266.52A1,1,0,0,1,265.52,316.8ZM242.93,222c13,0,17-4,17-19V130.67c0-15-4-19-17-19H229.17V222Z"/>
    <path class="cls-1"
          d="M377.31,270.8H339.52l-4.91,45.88a1,1,0,0,1-1,.92h-26a1,1,0,0,1-1-1.14l26-228.17a1,1,0,0,1,1-.91h49.47a1,1,0,0,1,1,.91l26,228.17a1,1,0,0,1-1,1.14h-26a1,1,0,0,1-1-.92Zm-2.76-24.27L360.29,113.66h-3.75L342.27,246.53Z"/>
    <path class="cls-1"
          d="M430.87,87.38h26.74a1,1,0,0,1,1,1V316.57a1,1,0,0,1-1,1H430.87a1,1,0,0,1-1-1V88.41A1,1,0,0,1,430.87,87.38Z"/>
    <path class="cls-1"
          d="M482.67,87.38h36.17a1,1,0,0,1,1,.83l36.37,182.84h2l-.75-24.27V88.41a1,1,0,0,1,1-1h24.73a1,1,0,0,1,1,1V316.57a1,1,0,0,1-1,1H547.05a1,1,0,0,1-1-.83L509.67,133.93h-2l.75,24.27V316.57a1,1,0,0,1-1,1H482.67a1,1,0,0,1-1-1V88.41A1,1,0,0,1,482.67,87.38Z"/>
    <path class="cls-1"
          d="M875.92,88.66,839.23,229v87.56a1,1,0,0,1-1,1H811.72a1,1,0,0,1-1-1V229L774,88.66a1,1,0,0,1,1-1.28h25.64a1,1,0,0,1,1,.8L824.21,186h1.5L848.3,88.18a1,1,0,0,1,1-.8h25.64A1,1,0,0,1,875.92,88.66Z"/>
    <path class="cls-1"
          d="M740.88,293.32V88.41a1,1,0,0,0-1-1H713.13a1,1,0,0,0-1,1V272.27a33.11,33.11,0,0,1,3,3.66,59.48,59.48,0,0,1,3.92,6.38,52.58,52.58,0,0,1,6.28,24.43,39.63,39.63,0,0,1-1.54,10.86h56.39a1,1,0,0,0,1-1V294.34a1,1,0,0,0-1-1Z"/>
    <path class="cls-1"
          d="M650.41,317.6a39.63,39.63,0,0,1-1.54-10.86,52.65,52.65,0,0,1,6.28-24.44,59.35,59.35,0,0,1,3.92-6.37,33.47,33.47,0,0,1,3.49-4.18V111.65h28.26a1,1,0,0,0,1-1V88.41a1,1,0,0,0-1-1H605.53a1,1,0,0,0-1,1v22.22a1,1,0,0,0,1,1h28.26V316.57a1,1,0,0,0,1,1Z"/>
    <path class="cls-2"
          d="M687.09,271.56a24.15,24.15,0,0,0-19.74,10.21,50,50,0,0,0-3.25,5.28c-6.22,11.76-8.09,27.84,2.2,38.15h0l0,0a17.37,17.37,0,0,0,3,2.43,28.35,28.35,0,0,0,4.66,2.67A30.38,30.38,0,0,0,686.64,333h.89a30.38,30.38,0,0,0,12.64-2.65,28.35,28.35,0,0,0,4.66-2.67,17.37,17.37,0,0,0,3-2.43l0,0h0c10.3-10.31,8.42-26.39,2.2-38.15a50,50,0,0,0-3.25-5.28,24.14,24.14,0,0,0-19.73-10.21Z"/>
</svg>