<svg width="90" height="28" viewBox="0 0 90 28" fill="none" xmlns="http://www.w3.org/2000/svg">
    <path d="M10.1034 16.8449V21.4466C10.1034 24.9244 9.42038 26.4504 5.64046 26.4504H0V0H5.60513C9.2673 0 9.98561 1.52598 9.98561 5.0038V8.99028C9.98561 10.8593 9.56169 12.0659 8.10153 12.7283V12.9058C9.58524 13.5919 10.1034 14.8813 10.1034 16.8449ZM3.28536 2.79172V11.782H4.76907C6.1939 11.782 6.74735 11.297 6.74735 9.48711V4.96831C6.74735 3.27672 6.32343 2.77989 4.82795 2.77989H3.28536V2.79172ZM6.80623 16.3481C6.80623 14.5146 6.26456 14.0532 4.82795 14.0532H3.28536V23.6232H4.88682C6.34698 23.6232 6.80623 23.1381 6.80623 21.4347V16.3481Z"
          fill="#302F3F"/>
    <path d="M20.1949 26.4385L18.3108 18.0515H16.0146V26.4385H12.7292V0H18.3344C22.0554 0 22.7737 1.52598 22.7737 5.0038V13.2488C22.7737 15.2362 22.1732 16.5256 21.031 17.2471L23.2094 26.4385H20.1949ZM17.5925 15.4609C19.0762 15.4609 19.5355 14.9996 19.5355 13.2725V4.96831C19.5355 3.24123 19.0762 2.77989 17.5925 2.77989H16.0146V15.4491H17.5925V15.4609Z"
          fill="#302F3F"/>
    <path d="M32.9597 21.068H28.6381L28.0611 26.4385H24.8582L27.8609 0H33.7251L36.7278 26.4385H33.5249L32.9597 21.068ZM32.6417 18.2763L31.0167 3.01648H30.5928L28.9678 18.2763H32.6417Z"
          fill="#302F3F"/>
    <path d="M38.9651 0H42.2504V26.4385H38.9651V0Z" fill="#302F3F"/>
    <path d="M44.8882 0H49.2333L53.4136 21.0917H53.6373L53.5549 18.3V0H56.6165V26.4385H52.2714L48.0911 5.34685H47.8674L47.9498 8.13857V26.4504H44.8882V0Z"
          fill="#302F3F"/>
    <path d="M74.5271 23.6468V0H71.2417V21.3164C71.3241 21.4111 71.3948 21.5057 71.4654 21.6122C71.6303 21.8369 71.7834 22.0853 71.9011 22.3219C72.3604 23.1855 72.6077 24.1555 72.5959 25.0545C72.5959 25.5395 72.5134 26.0127 72.3721 26.4385H79.1313V23.6468H74.5271Z"
          fill="#302F3F"/>
    <path d="M90.0001 0L85.7609 16.2653V26.4385H82.4991V16.2653L78.2717 0H81.4511L84.0535 11.3207H84.2301L86.8207 0H90.0001Z"
          fill="#302F3F"/>
    <path d="M68.3333 21.1035C67.4619 21.1035 66.6376 21.5294 66.1313 22.251C65.99 22.4521 65.8604 22.665 65.7662 22.8424C65.0715 24.1673 64.8595 25.9654 66.0135 27.1246C66.1195 27.2311 66.2373 27.3257 66.3432 27.3967C66.5081 27.515 66.6965 27.6215 66.8614 27.6925C67.3088 27.8935 67.7916 27.9882 68.2744 27.9882H68.3804C68.8632 27.9882 69.346 27.8935 69.7935 27.6925C69.9701 27.6096 70.1467 27.515 70.3116 27.3967C70.4293 27.3257 70.5353 27.2311 70.6413 27.1246C71.7953 25.9654 71.5833 24.1673 70.8886 22.8424C70.7944 22.665 70.6649 22.4521 70.5235 22.251C70.0408 21.5294 69.2165 21.1035 68.3333 21.1035Z"
          fill="#81E7CA"/>
    <path d="M64.2942 26.4385C64.1529 26.0127 64.0705 25.5513 64.0705 25.0545C64.0705 24.1555 64.3178 23.1855 64.7653 22.3219C64.8948 22.0853 65.0479 21.8369 65.201 21.6122C65.3069 21.4584 65.4247 21.3164 65.5542 21.1745V2.79172H68.8984V0H58.9128V2.79172H62.2571V26.4385H64.2942Z"
          fill="#302F3F"/>
</svg>
