<svg width="24" height="25" viewBox="0 0 24 25" fill="none" xmlns="http://www.w3.org/2000/svg">
    <rect x="0.5" y="4.42871" width="23" height="16.1429" rx="3.5" fill="white" stroke="#F5F5F5"/>
    <mask id="mask0_1686_70" style="mask-type:alpha" maskUnits="userSpaceOnUse" x="0" y="3" width="24" height="19">
        <rect x="0.5" y="4.42871" width="23" height="16.1429" rx="3.5" fill="white" stroke="white"/>
    </mask>
    <g mask="url(#mask0_1686_70)">
        <path fill-rule="evenodd" clip-rule="evenodd" d="M0 9.643H24V3.92871H0V9.643Z" fill="#88BBE8"/>
        <path fill-rule="evenodd" clip-rule="evenodd" d="M0 21.0717H24V15.3574H0V21.0717Z" fill="#88BBE8"/>
        <path d="M13.7142 12.4999C13.7142 13.4467 12.9467 14.2142 11.9999 14.2142C11.0532 14.2142 10.2856 13.4467 10.2856 12.4999C10.2856 11.5532 11.0532 10.7856 11.9999 10.7856C12.9467 10.7856 13.7142 11.5532 13.7142 12.4999Z"
              fill="#F4B32E"/>
        <path fill-rule="evenodd" clip-rule="evenodd"
              d="M14.1426 12.5003C14.1426 13.6837 13.1833 14.6431 11.9998 14.6431C10.8163 14.6431 9.85693 13.6837 9.85693 12.5003C9.85693 11.3168 10.8163 10.3574 11.9998 10.3574C13.1833 10.3574 14.1426 11.3168 14.1426 12.5003ZM11.9998 14.2146C12.9466 14.2146 13.7141 13.4471 13.7141 12.5003C13.7141 11.5535 12.9466 10.786 11.9998 10.786C11.053 10.786 10.2855 11.5535 10.2855 12.5003C10.2855 13.4471 11.053 14.2146 11.9998 14.2146Z"
              fill="#DB7A2C"/>
    </g>
</svg>
