<svg width="1440" height="68" viewBox="0 0 1440 68" fill="none" xmlns="http://www.w3.org/2000/svg">
<path d="M2602 1.99992C2467.61 1.99993 2467.61 66.0003 2333.21 66.0003C2198.82 66.0003 2198.82 1.99995 2064.43 1.99996C1930.04 1.99997 1930.04 66.0003 1795.64 66.0003C1661.25 66.0003 1661.25 2 1526.86 2.00001C1392.46 2.00002 1392.46 66.0003 1258.07 66.0004C1123.68 66.0004 1123.68 2.00004 989.286 2.00006C854.893 2.00007 854.893 66.0004 720.5 66.0004C586.107 66.0004 586.107 2.00009 451.714 2.0001C317.321 2.00012 317.321 66.0004 182.928 66.0005C48.5356 66.0005 48.536 2.00014 -85.8569 2.00015C-220.25 2.00016 -220.25 66.0005 -354.643 66.0005C-489.036 66.0005 -489.036 2.00019 -623.428 2.0002C-757.821 2.00021 -757.821 66.0005 -892.214 66.0005C-1026.61 66.0006 -1026.61 2.00023 -1161 2.00024" stroke="#EDF3F2" stroke-width="3" stroke-miterlimit="10"/>
</svg>
