<svg width="1440" height="123" viewBox="0 0 1440 123" fill="none" xmlns="http://www.w3.org/2000/svg">
<path d="M2602 1.99991C2467.61 1.99992 2467.61 121 2333.21 121C2198.82 121 2198.82 1.99995 2064.43 1.99996C1930.04 1.99997 1930.04 121 1795.64 121C1661.25 121 1661.25 1.99999 1526.86 2.00001C1392.46 2.00002 1392.46 121 1258.07 121C1123.68 121 1123.68 2.00004 989.286 2.00005C854.893 2.00007 854.893 121 720.5 121C586.107 121 586.107 2.00009 451.714 2.0001C317.321 2.00011 317.321 121 182.928 121C48.5356 121 48.536 2.00014 -85.8569 2.00015C-220.25 2.00016 -220.25 121 -354.643 121.001C-489.036 121.001 -489.036 2.00018 -623.428 2.00019C-757.821 2.00021 -757.821 121.001 -892.214 121.001C-1026.61 121.001 -1026.61 2.00023 -1161 2.00024" stroke="#EDF3F2" stroke-width="3" stroke-miterlimit="10"/>
</svg>
