<svg width="606" height="15" viewBox="0 0 606 15" fill="none" xmlns="http://www.w3.org/2000/svg">
    <path d="M606 1.94575C584.357 1.94575 584.357 13.9458 562.714 13.9458C541.071 13.9458 541.071 1.94575 519.429 1.94576C497.786 1.94576 497.786 13.9458 476.143 13.9458C454.5 13.9458 454.5 1.94576 432.857 1.94576C411.214 1.94576 411.214 13.9458 389.571 13.9458C367.929 13.9458 367.929 1.94577 346.286 1.94577C324.643 1.94577 324.643 13.9458 303 13.9458C281.357 13.9458 281.357 1.94578 259.714 1.94578C238.071 1.94578 238.071 13.9458 216.429 13.9458C194.786 13.9458 194.786 1.94578 173.143 1.94579C151.5 1.94579 151.5 13.9458 129.857 13.9458C108.214 13.9458 108.214 1.94579 86.5714 1.94579C64.9286 1.94579 64.9286 13.9458 43.2857 13.9458C21.6429 13.9459 21.6429 1.9458 1.75342e-06 1.9458"
          stroke="black" stroke-width="2" stroke-miterlimit="10"/>
</svg>
