<svg width="24" height="25" viewBox="0 0 24 25" fill="none" xmlns="http://www.w3.org/2000/svg">
    <g clip-path="url(#clip0_1212_1500)">
        <path d="M21 10.4043C21 17.4043 12 23.4043 12 23.4043C12 23.4043 3 17.4043 3 10.4043C3 8.01735 3.94821 5.72816 5.63604 4.04034C7.32387 2.35251 9.61305 1.4043 12 1.4043C14.3869 1.4043 16.6761 2.35251 18.364 4.04034C20.0518 5.72816 21 8.01735 21 10.4043Z"
              stroke="#000000" stroke-width="2" stroke-linecap="round" stroke-linejoin="round"/>
        <path d="M12 13.4043C13.6569 13.4043 15 12.0612 15 10.4043C15 8.74744 13.6569 7.4043 12 7.4043C10.3431 7.4043 9 8.74744 9 10.4043C9 12.0612 10.3431 13.4043 12 13.4043Z"
              stroke="#000000" stroke-width="2" stroke-linecap="round" stroke-linejoin="round"/>
    </g>
    <defs>
        <clipPath id="clip0_1212_1500">
            <rect width="24" height="24" fill="white" transform="translate(0 0.404297)"/>
        </clipPath>
    </defs>
</svg>
