<svg width="116" height="36" viewBox="0 0 116 36" fill="none" xmlns="http://www.w3.org/2000/svg">
<path d="M13.0221 21.6578V27.5741C13.0221 32.0456 12.1418 34.0076 7.26992 34.0076H0V0H7.22439C11.9445 0 12.8703 1.96198 12.8703 6.43346V11.5589C12.8703 13.962 12.324 15.5133 10.442 16.365V16.5932C12.3543 17.4753 13.0221 19.1331 13.0221 21.6578ZM4.23446 3.58935V15.1483H6.1468C7.98325 15.1483 8.69658 14.5247 8.69658 12.1977V6.38783C8.69658 4.21293 8.1502 3.57414 6.22269 3.57414H4.23446V3.58935ZM8.77247 21.019C8.77247 18.6616 8.07432 18.0684 6.22269 18.0684H4.23446V30.3726H6.29857C8.18056 30.3726 8.77247 29.7491 8.77247 27.5589V21.019Z" fill="#302F3F"/>
<path d="M26.0291 33.9924L23.6008 23.2091H20.6412V33.9924H16.4067V0H23.6311C28.4271 0 29.353 1.96198 29.353 6.43346V17.0342C29.353 19.5894 28.5789 21.2472 27.1067 22.1749L29.9145 33.9924H26.0291ZM22.675 19.8783C24.5873 19.8783 25.1792 19.2852 25.1792 17.0646V6.38783C25.1792 4.1673 24.5873 3.57414 22.675 3.57414H20.6412V19.8631H22.675V19.8783Z" fill="#302F3F"/>
<path d="M42.481 27.0875H36.911L36.1673 33.9924H32.0391L35.9093 0H43.4675L47.3377 33.9924H43.2095L42.481 27.0875ZM42.0712 23.4981L39.9768 3.87833H39.4304L37.3359 23.4981H42.0712Z" fill="#302F3F"/>
<path d="M50.2217 0H54.4561V33.9924H50.2217V0Z" fill="#302F3F"/>
<path d="M57.856 0H63.4564L68.8443 27.1179H69.1327L69.0264 23.5285V0H72.9725V33.9924H67.3721L61.9842 6.87453H61.6958L61.802 10.4639V34.0076H57.856V0Z" fill="#302F3F"/>
<path d="M96.0572 30.403V0H91.8228V27.4068C91.929 27.5285 92.0201 27.6502 92.1111 27.7871C92.3236 28.076 92.5209 28.3954 92.6727 28.6996C93.2646 29.8099 93.5833 31.057 93.5681 32.2129C93.5681 32.8365 93.4619 33.4449 93.2798 33.9924H101.992V30.403H96.0572Z" fill="#302F3F"/>
<path d="M116 0L110.536 20.9125V33.9924H106.332V20.9125L100.883 0H104.981L108.335 14.5551H108.563L111.902 0H116Z" fill="#302F3F"/>
<path d="M88.0742 27.1331C86.9511 27.1331 85.8887 27.6806 85.236 28.6083C85.0539 28.8669 84.887 29.1407 84.7655 29.3688C83.8701 31.0722 83.5969 33.384 85.0843 34.8745C85.2209 35.0114 85.3726 35.1331 85.5092 35.2243C85.7217 35.3764 85.9645 35.5133 86.177 35.6045C86.7538 35.8631 87.376 35.9848 87.9983 35.9848H88.1349C88.7572 35.9848 89.3794 35.8631 89.9562 35.6045C90.1838 35.4981 90.4115 35.3764 90.624 35.2243C90.7758 35.1331 90.9124 35.0114 91.049 34.8745C92.5363 33.384 92.2631 31.0722 91.3677 29.3688C91.2463 29.1407 91.0793 28.8669 90.8972 28.6083C90.2749 27.6806 89.2125 27.1331 88.0742 27.1331Z" fill="#81E7CA"/>
<path d="M82.8682 33.9924C82.686 33.4449 82.5798 32.8517 82.5798 32.2129C82.5798 31.057 82.8985 29.8099 83.4752 28.6996C83.6422 28.3954 83.8395 28.076 84.0368 27.7871C84.1734 27.5894 84.3252 27.4068 84.4921 27.2243V3.58935H88.8025V0H75.9321V3.58935H80.2425V33.9924H82.8682Z" fill="#302F3F"/>
</svg>
