<svg width="116" height="37" viewBox="0 0 116 37" fill="none" xmlns="http://www.w3.org/2000/svg">
    <g clip-path="url(#clip0_1212_837)">
        <path d="M13.0221 21.7247V27.641C13.0221 32.1125 12.1418 34.0745 7.26992 34.0745H0V0.0668945H7.22439C11.9445 0.0668945 12.8703 2.02887 12.8703 6.50035V11.6258C12.8703 14.0289 12.324 15.5802 10.442 16.4319V16.6601C12.3543 17.5422 13.0221 19.2 13.0221 21.7247ZM4.23446 3.65625V15.2152H6.1468C7.98325 15.2152 8.69658 14.5916 8.69658 12.2646V6.45473C8.69658 4.27982 8.1502 3.64104 6.22269 3.64104H4.23446V3.65625ZM8.77247 21.0859C8.77247 18.7285 8.07432 18.1353 6.22269 18.1353H4.23446V30.4395H6.29857C8.18056 30.4395 8.77247 29.8159 8.77247 27.6258V21.0859Z"
              fill="white"/>
        <path d="M26.0291 34.0593L23.6008 23.276H20.6412V34.0593H16.4067V0.0668945H23.6311C28.4271 0.0668945 29.353 2.02887 29.353 6.50035V17.1011C29.353 19.6562 28.5789 21.314 27.1067 22.2418L29.9145 34.0593H26.0291ZM22.675 19.9452C24.5873 19.9452 25.1792 19.3521 25.1792 17.1315V6.45473C25.1792 4.2342 24.5873 3.64104 22.675 3.64104H20.6412V19.93H22.675V19.9452Z"
              fill="white"/>
        <path d="M42.481 27.1544H36.911L36.1673 34.0593H32.0391L35.9093 0.0668945H43.4675L47.3377 34.0593H43.2095L42.481 27.1544ZM42.0712 23.565L39.9768 3.94522H39.4304L37.3359 23.565H42.0712Z"
              fill="white"/>
        <path d="M50.2217 0.0668945H54.4561V34.0593H50.2217V0.0668945Z" fill="white"/>
        <path d="M57.856 0.0668945H63.4564L68.8443 27.1848H69.1327L69.0264 23.5954V0.0668945H72.9725V34.0593H67.3721L61.9842 6.94142H61.6958L61.802 10.5308V34.0745H57.856V0.0668945Z"
              fill="white"/>
        <path d="M96.0572 30.4699V0.0668945H91.8228V27.4737C91.929 27.5954 92.0201 27.7171 92.1111 27.854C92.3236 28.1429 92.5209 28.4623 92.6727 28.7665C93.2646 29.8768 93.5833 31.1239 93.5681 32.2798C93.5681 32.9034 93.4619 33.5118 93.2798 34.0593H101.992V30.4699H96.0572Z"
              fill="white"/>
        <path d="M116 0.0668945L110.536 20.9794V34.0593H106.332V20.9794L100.883 0.0668945H104.981L108.335 14.622H108.563L111.902 0.0668945H116Z"
              fill="white"/>
        <path d="M88.0742 27.2002C86.9511 27.2002 85.8887 27.7477 85.236 28.6755C85.0539 28.934 84.887 29.2078 84.7655 29.4359C83.8701 31.1394 83.5969 33.4511 85.0843 34.9416C85.2209 35.0785 85.3726 35.2002 85.5092 35.2915C85.7217 35.4435 85.9645 35.5804 86.177 35.6717C86.7538 35.9302 87.376 36.0519 87.9983 36.0519H88.1349C88.7572 36.0519 89.3794 35.9302 89.9562 35.6717C90.1838 35.5652 90.4115 35.4435 90.624 35.2915C90.7758 35.2002 90.9124 35.0785 91.049 34.9416C92.5363 33.4511 92.2631 31.1394 91.3677 29.4359C91.2463 29.2078 91.0793 28.934 90.8972 28.6755C90.2749 27.7477 89.2125 27.2002 88.0742 27.2002Z"
              fill="#00e7c9"/>
        <path d="M82.8682 34.0593C82.686 33.5118 82.5798 32.9186 82.5798 32.2798C82.5798 31.1239 82.8985 29.8768 83.4752 28.7665C83.6422 28.4623 83.8395 28.1429 84.0368 27.854C84.1734 27.6562 84.3252 27.4737 84.4921 27.2912V3.65625H88.8025V0.0668945H75.9321V3.65625H80.2425V34.0593H82.8682Z"
              fill="white"/>
    </g>
    <defs>
        <clipPath id="clip0_1212_837">
            <rect width="116" height="36" fill="white" transform="translate(0 0.0668945)"/>
        </clipPath>
    </defs>
</svg>
