<svg width="42" height="42" viewBox="0 0 42 42" fill="none" xmlns="http://www.w3.org/2000/svg">
<mask id="path-1-inside-1_1212_1114" fill="white">
<path fill-rule="evenodd" clip-rule="evenodd" d="M25.5 0H16.5V16.5H0V25.5H16.5V42H25.5V25.5H42V16.5H25.5V0Z"/>
</mask>
<path d="M16.5 0V-1H15.5V0H16.5ZM25.5 0H26.5V-1H25.5V0ZM16.5 16.5V17.5H17.5V16.5H16.5ZM0 16.5V15.5H-1V16.5H0ZM0 25.5H-1V26.5H0V25.5ZM16.5 25.5H17.5V24.5H16.5V25.5ZM16.5 42H15.5V43H16.5V42ZM25.5 42V43H26.5V42H25.5ZM25.5 25.5V24.5H24.5V25.5H25.5ZM42 25.5V26.5H43V25.5H42ZM42 16.5H43V15.5H42V16.5ZM25.5 16.5H24.5V17.5H25.5V16.5ZM16.5 1H25.5V-1H16.5V1ZM17.5 16.5V0H15.5V16.5H17.5ZM0 17.5H16.5V15.5H0V17.5ZM1 25.5V16.5H-1V25.5H1ZM16.5 24.5H0V26.5H16.5V24.5ZM17.5 42V25.5H15.5V42H17.5ZM25.5 41H16.5V43H25.5V41ZM24.5 25.5V42H26.5V25.5H24.5ZM42 24.5H25.5V26.5H42V24.5ZM41 16.5V25.5H43V16.5H41ZM25.5 17.5H42V15.5H25.5V17.5ZM24.5 0V16.5H26.5V0H24.5Z" fill="black" mask="url(#path-1-inside-1_1212_1114)"/>
</svg>
