<svg width="400" height="15" viewBox="0 0 400 15" fill="none" xmlns="http://www.w3.org/2000/svg">
    <path d="M0.671875 13.502L16.0475 1.90836C16.7603 1.3709 17.743 1.3709 18.4557 1.90836L32.6273 12.5941C33.34 13.1316 34.3227 13.1316 35.0355 12.5941L49.207 1.90839C49.9198 1.37094 50.9024 1.37094 51.6152 1.90839L65.7868 12.5941C66.4995 13.1316 67.4822 13.1316 68.195 12.5941L82.3665 1.9086C83.0793 1.37115 84.0619 1.37115 84.7747 1.90861L98.9462 12.5943C99.659 13.1318 100.642 13.1318 101.354 12.5943L115.526 1.90865C116.239 1.3712 117.221 1.3712 117.934 1.90866L132.106 12.5943C132.818 13.1318 133.801 13.1318 134.514 12.5942L148.685 1.90807C149.397 1.37056 150.38 1.37054 151.093 1.90802L165.264 12.5937C165.977 13.1312 166.96 13.1312 167.673 12.5937L181.844 1.90801C182.557 1.37055 183.54 1.37056 184.252 1.90801L198.424 12.5937C199.137 13.1312 200.119 13.1312 200.832 12.5938L215.004 1.90822C215.716 1.37077 216.699 1.37077 217.412 1.90823L231.583 12.594C232.296 13.1314 233.279 13.1314 233.992 12.594L248.163 1.90827C248.876 1.37082 249.859 1.37082 250.571 1.90827L264.743 12.594C265.456 13.1314 266.438 13.1314 267.151 12.594L281.323 1.9089C282.035 1.37148 283.018 1.37149 283.731 1.90894L297.902 12.5947C298.615 13.1322 299.598 13.1322 300.311 12.5947L314.482 1.90901C315.195 1.37155 316.178 1.37155 316.89 1.90901L331.062 12.5948C331.775 13.1322 332.757 13.1322 333.47 12.5948L347.642 1.90921C348.354 1.37176 349.337 1.37177 350.05 1.90922L364.221 12.595C364.934 13.1324 365.917 13.1324 366.63 12.595L380.801 1.90927C381.514 1.37182 382.497 1.37182 383.209 1.90927L398.585 13.5029"
          stroke="black" stroke-width="2"/>
</svg>
