<svg id="Layer_1" data-name="Layer 1" xmlns="http://www.w3.org/2000/svg" viewBox="0 0 2150 266">
    <defs>
        <style>.cls-1{fill:none;stroke:#edf3f2;stroke-miterlimit:10;stroke-width:3px;}</style>
    </defs>
    <path class="cls-1"
          d="M2149.86,80c-134.38,0-134.38,119-268.75,119S1746.73,80,1612.36,80,1478,199,1343.61,199,1209.23,80,1074.86,80,940.48,199,806.11,199,671.73,80,537.36,80,403,199,268.61,199,134.23,80-.14,80"/>
    <path class="cls-1"
          d="M2149.86,2c-134.38,0-134.38,64-268.75,64S1746.73,2,1612.36,2,1478,66,1343.61,66,1209.23,2,1074.86,2,940.48,66,806.11,66,671.73,2,537.36,2,403,66,268.61,66,134.23,2-.14,2"/>
    <path class="cls-1"
          d="M2149.86,217c-134.38,0-134.38,47-268.75,47s-134.38-47-268.75-47S1478,264,1343.61,264s-134.38-47-268.75-47-134.38,47-268.75,47-134.38-47-268.75-47S403,264,268.61,264,134.23,217-.14,217"/>
</svg>