<svg id="Layer_1" data-name="Layer 1" xmlns="http://www.w3.org/2000/svg" viewBox="0 0 436 555">
    <defs>
        <style>.cls-1{fill:none;stroke:#edf3f2;stroke-miterlimit:10;stroke-width:3px;}</style>
    </defs>
    <path class="cls-1"
          d="M1.34,172.73c30.25,26.22,57,55.51,116.89,55.51,108.36,0,108.36-96,216.72-96,48.44,0,75.22,19.18,99.71,40.4"/>
    <path class="cls-1"
          d="M1.34,302.47c62.6,23.25,78.61,87.77,167.45,87.77,108.36,0,108.36-96,216.72-96,19.47,0,35.42,3.11,49.15,8.19"/>
    <path class="cls-1"
          d="M1.34,91.17c30.25,14.2,57,30.07,116.89,30.07,108.36,0,108.36-52,216.72-52,48.44,0,75.22,10.39,99.71,21.88"/>
    <path class="cls-1"
          d="M1.34,258.27c30.25,10.38,57,22,116.89,22,108.36,0,108.36-38,216.72-38,48.44,0,75.22,7.59,99.71,16"/>
    <path class="cls-1"
          d="M434.66,443.32a337.34,337.34,0,0,0-49.15-3.24c-108.36,0-108.36,38-216.72,38C80,478.08,63.94,452.54,1.34,443.34"/>
</svg>