<svg width="195" height="9" viewBox="0 0 195 9" fill="none" xmlns="http://www.w3.org/2000/svg">
    <path d="M1.77148 7.35208L9.26999 1.69798C9.98277 1.16052 10.9654 1.16052 11.6782 1.69798L17.9726 6.44414C18.6854 6.9816 19.6681 6.9816 20.3808 6.44414L26.6752 1.698C27.388 1.16054 28.3707 1.16054 29.0835 1.698L35.3779 6.44415C36.0906 6.9816 37.0733 6.98161 37.7861 6.44416L44.0805 1.69809C44.7932 1.16065 45.7759 1.16065 46.4887 1.6981L52.7831 6.44427C53.4959 6.98172 54.4785 6.98172 55.1913 6.44427L61.4857 1.69813C62.1985 1.16068 63.1811 1.16068 63.8939 1.69813L70.1883 6.44422C70.9011 6.9817 71.8838 6.98167 72.5966 6.44416L78.8905 1.69788C79.6033 1.16036 80.586 1.16034 81.2988 1.69782L87.5931 6.44394C88.3059 6.9814 89.2886 6.9814 90.0014 6.44394L96.2958 1.69779C97.0085 1.16034 97.9912 1.16034 98.704 1.69779L104.998 6.44395C105.711 6.9814 106.694 6.98141 107.407 6.44396L113.701 1.69789C114.414 1.16045 115.396 1.16045 116.109 1.6979L122.404 6.44407C123.116 6.98152 124.099 6.98152 124.812 6.44407L131.106 1.69793C131.819 1.16048 132.802 1.16048 133.514 1.69793L139.809 6.44409C140.522 6.98154 141.504 6.98155 142.217 6.44412L148.511 1.69824C149.224 1.16081 150.207 1.16083 150.92 1.69827L157.214 6.44447C157.927 6.98193 158.91 6.98193 159.622 6.44447L165.917 1.69832C166.629 1.16086 167.612 1.16086 168.325 1.69832L174.619 6.44448C175.332 6.98193 176.315 6.98194 177.028 6.44449L183.322 1.69842C184.035 1.16097 185.017 1.16098 185.73 1.69843L193.229 7.35253"
          stroke="#48FFCB" stroke-width="2" stroke-linecap="round"/>
</svg>
