<?xml version="1.0" standalone="no"?>
<!DOCTYPE svg PUBLIC "-//W3C//DTD SVG 20010904//EN"
 "http://www.w3.org/TR/2001/REC-SVG-20010904/DTD/svg10.dtd">
<svg version="1.0" xmlns="http://www.w3.org/2000/svg"
 width="260.000000pt" height="260.000000pt" viewBox="0 0 260.000000 260.000000"
 preserveAspectRatio="xMidYMid meet">
<metadata>
Created by potrace 1.14, written by Peter Selinger 2001-2017
</metadata>
<g transform="translate(0.000000,260.000000) scale(0.100000,-0.100000)"
fill="#000000" stroke="none">
<path d="M295 2586 c-116 -37 -207 -116 -258 -224 l-32 -67 0 -995 0 -995 32
-68 c41 -87 114 -159 201 -200 l67 -32 995 0 995 0 67 32 c87 41 160 113 201
200 l32 68 0 995 0 995 -32 67 c-41 88 -113 160 -201 201 l-67 32 -980 2
c-769 1 -989 -1 -1020 -11z"/>
</g>
</svg>
