<svg width="398" height="45" xmlns="http://www.w3.org/2000/svg" data-name="Layer 1">

 <g>
  <title>Layer 1</title>
  <path id="svg_1" stroke-width="2px" stroke="#9ba9a7" fill="none" d="m33.37,27.15l23.63,-23.61l6.8,6.8l-31.14,31.12l-31.12,-31.12l6.8,-6.8l23.66,23.61l0.7,0.71l0.67,-0.71z" class="cls-1"/>
  <path id="svg_2" stroke-width="2px" stroke="#9ba9a7" fill="none" d="m144.43,27.15l23.57,-23.61l6.8,6.8l-31.08,31.12l-31.12,-31.12l6.8,-6.8l23.6,23.61l0.7,0.71l0.73,-0.71z" class="cls-1"/>
  <path id="svg_3" stroke-width="2px" stroke="#9ba9a7" fill="none" d="m255.49,27.15l23.62,-23.61l6.8,6.8l-31.12,31.12l-31.12,-31.12l6.79,-6.8l23.62,23.61l0.71,0.71l0.7,-0.71z" class="cls-1"/>
  <path id="svg_4" stroke-width="2px" stroke="#9ba9a7" fill="none" d="m366.55,27.15l23.62,-23.61l6.8,6.8l-31.12,31.12l-31.12,-31.12l6.8,-6.8l23.61,23.61l0.71,0.71l0.7,-0.71z" class="cls-1"/>
 </g>
</svg>