<svg id="Layer_1" data-name="Layer 1" xmlns="http://www.w3.org/2000/svg" viewBox="0 0 1287 45"><defs><style>.cls-1{fill:none;stroke:#9ba9a7;stroke-width:2px;}</style></defs><path class="cls-1" d="M33.37,27.15,57,3.54l6.8,6.8L32.66,41.46,1.54,10.34l6.8-6.8L32,27.15l.7.71Z"/><path class="cls-1" d="M144.43,27.15,168,3.54l6.8,6.8L143.72,41.46,112.6,10.34l6.8-6.8L143,27.15l.7.71Z"/><path class="cls-1" d="M255.49,27.15,279.11,3.54l6.8,6.8L254.79,41.46,223.67,10.34l6.79-6.8,23.62,23.61.71.71Z"/><path class="cls-1" d="M366.55,27.15,390.17,3.54l6.8,6.8L365.85,41.46,334.73,10.34l6.8-6.8,23.61,23.61.71.71Z"/><path class="cls-1" d="M477.62,27.15,501.23,3.54l6.8,6.8L476.91,41.46,445.79,10.34l6.8-6.8L476.2,27.15l.71.71Z"/><path class="cls-1" d="M588.68,27.15,612.29,3.54l6.8,6.8L588,41.46,556.85,10.34l6.8-6.8,23.61,23.61.71.71Z"/><path class="cls-1" d="M699.74,27.15,723.35,3.54l6.8,6.8L699,41.46,667.91,10.34l6.8-6.8,23.61,23.61.71.71Z"/><path class="cls-1" d="M810.8,27.15,834.41,3.54l6.8,6.8L810.09,41.46,779,10.34l6.8-6.8,23.62,23.61.7.71Z"/><path class="cls-1" d="M921.86,27.15,945.48,3.54l6.79,6.8L921.16,41.46,890,10.34l6.79-6.8,23.62,23.61.71.71Z"/><path class="cls-1" d="M1032.93,27.15l23.61-23.61,6.8,6.8-31.12,31.12L1001.1,10.34l6.8-6.8,23.61,23.61.71.71Z"/><path class="cls-1" d="M1144,27.15,1167.6,3.54l6.8,6.8-31.12,31.12-31.12-31.12,6.8-6.8,23.61,23.61.71.71Z"/><path class="cls-1" d="M1255.05,27.15l23.61-23.61,6.8,6.8-31.12,31.12-31.12-31.12,6.8-6.8,23.62,23.61.7.71Z"/></svg>