<svg width="427" height="12" viewBox="0 0 427 12" fill="none" xmlns="http://www.w3.org/2000/svg">
<path d="M426.62 1.71566C411.405 1.71566 411.405 10.1514 396.191 10.1514C380.977 10.1514 380.977 1.71567 365.762 1.71567C350.548 1.71567 350.548 10.1514 335.334 10.1514C320.119 10.1514 320.119 1.71567 304.905 1.71567C289.691 1.71568 289.691 10.1514 274.476 10.1514C259.262 10.1514 259.262 1.71568 244.048 1.71568C228.833 1.71568 228.833 10.1514 213.619 10.1514C198.405 10.1514 198.405 1.71568 183.19 1.71568C167.976 1.71569 167.976 10.1514 152.762 10.1514C137.547 10.1514 137.547 1.71569 122.333 1.71569C107.119 1.71569 107.119 10.1514 91.9044 10.1514C76.6901 10.1514 76.6901 1.71569 61.4758 1.7157C46.2614 1.7157 46.2614 10.1514 31.0471 10.1514C15.8328 10.1514 15.8328 1.7157 0.618435 1.7157" stroke="black" stroke-width="2" stroke-miterlimit="10"/>
</svg>
