<svg width="32" height="32" viewBox="0 0 32 32" fill="none" xmlns="http://www.w3.org/2000/svg">
    <path d="M16 32C7.17548 32 0 24.8245 0 16C0 7.17549 7.17548 0 16 0C24.8245 0 32 7.17549 32 16C32 24.8691 24.8245 32 16 32Z"
          fill="#48FFCB"/>
    <path d="M16.0001 8.82454C18.3622 8.82454 18.6296 8.82454 19.521 8.86911C20.3678 8.91367 20.858 9.04738 21.17 9.18108C21.5711 9.35936 21.8831 9.53763 22.1951 9.84961C22.5071 10.1616 22.6853 10.429 22.8636 10.8747C22.9973 11.1867 23.131 11.6323 23.1756 12.5237C23.2201 13.4596 23.2201 13.727 23.2201 16.0446C23.2201 18.4067 23.2201 18.6741 23.1756 19.5655C23.131 20.4123 22.9973 20.9025 22.8636 21.2145C22.6853 21.6156 22.5071 21.9276 22.1951 22.2396C21.8831 22.5516 21.6157 22.7298 21.17 22.9081C20.858 23.0418 20.4124 23.1755 19.521 23.2201C18.5851 23.2647 18.3177 23.2647 16.0001 23.2647C13.638 23.2647 13.3706 23.2647 12.4792 23.2201C11.6325 23.1755 11.1422 23.0418 10.8302 22.9081C10.4291 22.7298 10.1171 22.5516 9.80516 22.2396C9.49319 21.9276 9.31492 21.6602 9.13664 21.2145C9.00294 20.9025 8.86924 20.4569 8.82467 19.5655C8.7801 18.6296 8.7801 18.3621 8.7801 16.0446C8.7801 13.6825 8.7801 13.4151 8.82467 12.5237C8.86924 11.6769 9.00294 11.1867 9.13664 10.8747C9.31492 10.4736 9.49319 10.1616 9.80516 9.84961C10.1171 9.53763 10.3846 9.35936 10.8302 9.18108C11.1422 9.04738 11.5879 8.91367 12.4792 8.86911C13.4152 8.86911 13.6826 8.82454 16.0001 8.82454ZM16.0001 7.26465C13.638 7.26465 13.326 7.26465 12.3901 7.30922C11.4542 7.35378 10.8302 7.48749 10.2508 7.71033C9.67146 7.93317 9.18121 8.24515 8.69096 8.7354C8.20071 9.22565 7.88874 9.7159 7.6659 10.2953C7.44306 10.8747 7.30935 11.4986 7.26479 12.4346C7.22022 13.3705 7.22021 13.6825 7.22021 16.0446C7.22021 18.4067 7.22022 18.7187 7.26479 19.6546C7.30935 20.5906 7.44306 21.2145 7.6659 21.7939C7.88874 22.3733 8.20071 22.8635 8.69096 23.3538C9.18121 23.844 9.67146 24.156 10.2508 24.3789C10.8302 24.6017 11.4542 24.7354 12.3901 24.78C13.326 24.8245 13.638 24.8245 16.0001 24.8245C18.3622 24.8245 18.6742 24.8245 19.6101 24.78C20.5461 24.7354 21.17 24.6017 21.7494 24.3789C22.3288 24.156 22.819 23.844 23.3093 23.3538C23.7995 22.8635 24.1115 22.3733 24.3343 21.7939C24.5572 21.2145 24.6909 20.5906 24.7355 19.6546C24.78 18.7187 24.78 18.4067 24.78 16.0446C24.78 13.6825 24.78 13.3705 24.7355 12.4346C24.6909 11.4986 24.5572 10.8747 24.3343 10.2953C24.1115 9.7159 23.7995 9.22565 23.3093 8.7354C22.819 8.24515 22.3288 7.93317 21.7494 7.71033C21.17 7.48749 20.5461 7.35378 19.6101 7.30922C18.7188 7.26465 18.4068 7.26465 16.0001 7.26465Z"
          fill="black"/>
    <path d="M15.9999 11.543C13.5041 11.543 11.4985 13.5485 11.4985 16.0444C11.4985 18.5402 13.5041 20.5458 15.9999 20.5458C18.4958 20.5458 20.5013 18.5402 20.5013 16.0444C20.5013 13.5485 18.4958 11.543 15.9999 11.543ZM15.9999 18.9413C14.3955 18.9413 13.0584 17.6488 13.0584 15.9998C13.0584 14.3953 14.3509 13.0583 15.9999 13.0583C17.6044 13.0583 18.9415 14.3508 18.9415 15.9998C18.9415 17.6488 17.649 18.9413 15.9999 18.9413Z"
          fill="black"/>
    <path d="M21.7496 11.365C21.7496 11.9444 21.2594 12.4347 20.68 12.4347C20.1006 12.4347 19.6104 11.9444 19.6104 11.365C19.6104 10.7857 20.1006 10.2954 20.68 10.2954C21.2594 10.2954 21.7496 10.7857 21.7496 11.365Z"
          fill="black"/>
</svg>
