<svg width="33" height="32" viewBox="0 0 33 32" fill="none" xmlns="http://www.w3.org/2000/svg">
    <path d="M16.5 32C7.67548 32 0.5 24.8245 0.5 16C0.5 7.17549 7.67548 0 16.5 0C25.3245 0 32.5 7.17549 32.5 16C32.5 24.8691 25.3245 32 16.5 32Z"
          fill="#48FFCB"/>
    <path d="M16.4996 8.82454C18.8617 8.82454 19.1292 8.82454 20.0205 8.86911C20.8673 8.91367 21.3575 9.04738 21.6695 9.18108C22.0706 9.35936 22.3826 9.53763 22.6946 9.84961C23.0066 10.1616 23.1848 10.429 23.3631 10.8747C23.4968 11.1867 23.6305 11.6323 23.6751 12.5237C23.7197 13.4596 23.7197 13.727 23.7197 16.0446C23.7197 18.4067 23.7197 18.6741 23.6751 19.5655C23.6305 20.4123 23.4968 20.9025 23.3631 21.2145C23.1848 21.6156 23.0066 21.9276 22.6946 22.2396C22.3826 22.5516 22.1152 22.7298 21.6695 22.9081C21.3575 23.0418 20.9119 23.1755 20.0205 23.2201C19.0846 23.2647 18.8172 23.2647 16.4996 23.2647C14.1375 23.2647 13.8701 23.2647 12.9788 23.2201C12.132 23.1755 11.6417 23.0418 11.3297 22.9081C10.9286 22.7298 10.6167 22.5516 10.3047 22.2396C9.9927 21.9276 9.81443 21.6602 9.63615 21.2145C9.50245 20.9025 9.36875 20.4569 9.32418 19.5655C9.27961 18.6296 9.27961 18.3621 9.27961 16.0446C9.27961 13.6825 9.27961 13.4151 9.32418 12.5237C9.36875 11.6769 9.50245 11.1867 9.63615 10.8747C9.81443 10.4736 9.9927 10.1616 10.3047 9.84961C10.6167 9.53763 10.8841 9.35936 11.3297 9.18108C11.6417 9.04738 12.0874 8.91367 12.9788 8.86911C13.9147 8.86911 14.1821 8.82454 16.4996 8.82454ZM16.4996 7.26465C14.1375 7.26465 13.8256 7.26465 12.8896 7.30922C11.9537 7.35378 11.3297 7.48749 10.7504 7.71033C10.171 7.93317 9.68072 8.24515 9.19047 8.7354C8.70023 9.22565 8.38825 9.7159 8.16541 10.2953C7.94257 10.8747 7.80887 11.4986 7.7643 12.4346C7.71973 13.3705 7.71973 13.6825 7.71973 16.0446C7.71973 18.4067 7.71973 18.7187 7.7643 19.6546C7.80887 20.5906 7.94257 21.2145 8.16541 21.7939C8.38825 22.3733 8.70023 22.8635 9.19047 23.3538C9.68072 23.844 10.171 24.156 10.7504 24.3789C11.3297 24.6017 11.9537 24.7354 12.8896 24.78C13.8256 24.8245 14.1375 24.8245 16.4996 24.8245C18.8617 24.8245 19.1737 24.8245 20.1096 24.78C21.0456 24.7354 21.6695 24.6017 22.2489 24.3789C22.8283 24.156 23.3186 23.844 23.8088 23.3538C24.299 22.8635 24.611 22.3733 24.8339 21.7939C25.0567 21.2145 25.1904 20.5906 25.235 19.6546C25.2795 18.7187 25.2795 18.4067 25.2795 16.0446C25.2795 13.6825 25.2795 13.3705 25.235 12.4346C25.1904 11.4986 25.0567 10.8747 24.8339 10.2953C24.611 9.7159 24.299 9.22565 23.8088 8.7354C23.3186 8.24515 22.8283 7.93317 22.2489 7.71033C21.6695 7.48749 21.0456 7.35378 20.1096 7.30922C19.2183 7.26465 18.9063 7.26465 16.4996 7.26465Z"
          fill="white"/>
    <path d="M16.4994 11.543C14.0036 11.543 11.998 13.5485 11.998 16.0444C11.998 18.5402 14.0036 20.5458 16.4994 20.5458C18.9953 20.5458 21.0009 18.5402 21.0009 16.0444C21.0009 13.5485 18.9953 11.543 16.4994 11.543ZM16.4994 18.9413C14.895 18.9413 13.5579 17.6488 13.5579 15.9998C13.5579 14.3953 14.8504 13.0583 16.4994 13.0583C18.1039 13.0583 19.441 14.3508 19.441 15.9998C19.441 17.6488 18.1485 18.9413 16.4994 18.9413Z"
          fill="white"/>
    <path d="M22.2487 11.3648C22.2487 11.9442 21.7584 12.4344 21.179 12.4344C20.5996 12.4344 20.1094 11.9442 20.1094 11.3648C20.1094 10.7854 20.5996 10.2952 21.179 10.2952C21.7584 10.2952 22.2487 10.7854 22.2487 11.3648Z"
          fill="white"/>
</svg>
