<svg width="33" height="32" viewBox="0 0 33 32" fill="none" xmlns="http://www.w3.org/2000/svg">
    <path d="M16.5 32C7.67549 32 0.5 24.8591 0.5 16.0223C0.5 7.1855 7.67549 0 16.5 0C25.3245 0 32.5 7.1855 32.5 16.0223C32.4554 24.8591 25.3245 32 16.5 32Z"
          fill="currentColor"/>
    <path d="M12.5334 12.4517H9.23535V23.163H12.5334V12.4517Z" fill="white"/>
    <path d="M10.8848 11.0683C11.9545 11.0683 12.8458 10.1757 12.8458 9.10461C12.8458 8.03348 11.9545 7.14087 10.8848 7.14087C9.81519 7.14087 8.92383 8.03348 8.92383 9.10461C8.92383 10.1757 9.81519 11.0683 10.8848 11.0683Z"
          fill="white"/>
    <path d="M17.8372 17.5397C17.8372 16.0222 18.5503 15.1296 19.8428 15.1296C21.0461 15.1296 21.6255 15.9776 21.6255 17.5397C21.6255 19.1017 21.6255 23.1631 21.6255 23.1631H24.9236C24.9236 23.1631 24.9236 19.2356 24.9236 16.3793C24.9236 13.5229 23.3191 12.1394 21.0461 12.1394C18.7731 12.1394 17.8372 13.9246 17.8372 13.9246V12.4964H14.6729V23.2077H17.8372C17.8372 23.1631 17.8372 19.191 17.8372 17.5397Z"
          fill="white"/>
</svg>
