<svg width="32" height="32" viewBox="0 0 32 32" fill="none" xmlns="http://www.w3.org/2000/svg">
    <path d="M16 32C7.17549 32 0 24.8591 0 16.0223C0 7.1855 7.17549 0 16 0C24.8245 0 32 7.1855 32 16.0223C31.9554 24.8591 24.8245 32 16 32Z"
          fill="white"/>
    <path d="M12.0334 12.4521H8.73535V23.1634H12.0334V12.4521Z" fill="black"/>
    <path d="M10.3843 11.0686C11.454 11.0686 12.3453 10.176 12.3453 9.10485C12.3453 8.03372 11.454 7.14111 10.3843 7.14111C9.3147 7.14111 8.42334 8.03372 8.42334 9.10485C8.42334 10.176 9.3147 11.0686 10.3843 11.0686Z"
          fill="black"/>
    <path d="M17.3372 17.5399C17.3372 16.0225 18.0503 15.1299 19.3428 15.1299C20.5461 15.1299 21.1255 15.9779 21.1255 17.5399C21.1255 19.102 21.1255 23.1634 21.1255 23.1634H24.4236C24.4236 23.1634 24.4236 19.2359 24.4236 16.3795C24.4236 13.5232 22.8191 12.1396 20.5461 12.1396C18.2731 12.1396 17.3372 13.9249 17.3372 13.9249V12.4967H14.1729V23.208H17.3372C17.3372 23.1634 17.3372 19.1912 17.3372 17.5399Z"
          fill="black"/>
</svg>
