<svg width="33" height="32" id="Layer_1" data-name="Layer 1" xmlns="http://www.w3.org/2000/svg" viewBox="0 0 32 32">
    <defs>
        <style>.cls-1{fill:#fff;} .cls-2{fill:#48ffcb}</style>
    </defs>
    <path class="cls-2" d="M16,32A16,16,0,1,1,32,16,16,16,0,0,1,16,32Z"/>
    <path class="cls-1"
          d="M24.93,10.37a7.86,7.86,0,0,1-1.82.52c.29-.05.72-.58.89-.8A3.28,3.28,0,0,0,24.6,9s0-.07,0-.09-.06,0-.1,0a9.64,9.64,0,0,1-2.15.82.13.13,0,0,1-.15,0A1.7,1.7,0,0,0,22,9.5,3.89,3.89,0,0,0,21,8.86a3.51,3.51,0,0,0-1.6-.26A3.69,3.69,0,0,0,17.84,9a4.1,4.1,0,0,0-1.23,1,3.7,3.7,0,0,0-.73,1.47,3.86,3.86,0,0,0,0,1.55c0,.09,0,.1-.08.09A11.53,11.53,0,0,1,8.35,9.36c-.09-.1-.13-.1-.21,0a3.75,3.75,0,0,0,.65,4.44,4.28,4.28,0,0,0,.45.4,3.52,3.52,0,0,1-1.43-.4c-.09-.05-.13,0-.14.08a2,2,0,0,0,0,.42,3.76,3.76,0,0,0,2.34,3,1.92,1.92,0,0,0,.48.15,4.25,4.25,0,0,1-1.41,0c-.1,0-.14,0-.1.13a3.93,3.93,0,0,0,3,2.47c.13,0,.27,0,.4.06s0,0,0,0a4.81,4.81,0,0,1-2,1.07,7.23,7.23,0,0,1-3.06.39c-.16,0-.2,0-.24,0s0,.07.05.11.42.26.63.38A10.29,10.29,0,0,0,9.75,23,10.88,10.88,0,0,0,20.32,20.5a11.07,11.07,0,0,0,2.93-8.09c0-.12.13-.18.22-.24a7.27,7.27,0,0,0,1.43-1.5.44.44,0,0,0,.1-.29h0S25,10.33,24.93,10.37Z"/>
</svg>